<?xml version="1.0" encoding="utf-8"?>
<!-- Generator: Adobe Illustrator 25.2.1, SVG Export Plug-In . SVG Version: 6.00 Build 0)  -->
<svg version="1.1" xmlns="http://www.w3.org/2000/svg" xmlns:xlink="http://www.w3.org/1999/xlink" x="0px" y="0px"
	 viewBox="0 0 500 500" style="enable-background:new 0 0 500 500;" xml:space="preserve">
<style type="text/css">
	.st0{fill:#990358;}
	.st1{fill:#37474F;}
	.st2{fill:#E0E0E0;}
	.st3{fill:#263238;}
	.st4{fill:#B16668;}
	.st5{fill:#455A64;}
	.st6{opacity:0.3;}
	.st7{opacity:0.3;fill:#FFFFFF;}
	.st8{opacity:0.5;fill:#FFFFFF;}
	.st9{fill:#9A4A4D;}
	.st10{fill:#F28F8F;}
	.st11{fill:#FFA8A7;}
	.st12{fill:#AF6152;}
	.st13{fill:#FAFAFA;}
	.st14{fill:#F0F0F0;}
	.st15{fill:#EBEBEB;}
	.st16{fill:#7C005D;}
	.st17{font-family:'BerlinSansFBDemi-Bold';}
	.st18{font-size:16px;}
	.st19{fill:none;}
	.st20{fill:#FFBDA7;}
	.st21{opacity:0.25;}
	.st22{fill:#F0997A;}
</style>
<g id="Floor">
</g>
<g id="Clouds">
</g>
<g id="Plants">
	<g id="Plants_00000093139337078162037090000004091120427609318322_">
		<path class="st0" d="M34.2,348.8c0.3-1.2,0.2-3.3-1.8-4.9c-2-1.6-4.6-2.3-4.9-2.2c-0.3,0.2,0,2.9,2.1,5.1
			C31.6,348.9,33.4,348.7,34.2,348.8z"/>
		<path class="st0" d="M35.3,355c-0.3-1.2-1.3-3-3.8-3.6c-2.5-0.6-5.2,0-5.3,0.3c-0.2,0.3,1.3,2.6,4.2,3.6
			C33.1,356.3,34.7,355.3,35.3,355z"/>
		<path class="st0" d="M40.1,356c1.1-0.5,2.8-1.8,2.9-4.4c0.1-2.6-0.7-4.9-1-5c-0.3-0.1-2.6,1.9-3.2,4.5
			C38.1,353.9,39.7,355.4,40.1,356z"/>
		<path class="st1" d="M42.9,377.6c0.6-2.2,0.4-4.6,0.2-6.9c-0.2-2.1-0.6-4.2-1.2-6.3c-1.2-4.3-3-8.5-5.2-12.3
			c-1.5-2.4-3.1-5-5.3-6.8c0,0-0.2,0.1-0.1,0.1c2.2,2.7,3,4.3,4.3,6.5c1.1,1.9,2.2,4,3.1,6.3c1.6,4.1,2.5,7.5,3,11.5
			c0.4,2.6,0.3,5.2,0.4,7.9C42.1,378,42.8,378.2,42.9,377.6z"/>
		<path class="st1" d="M39.6,358c0.5-1,0.9-2.1,1.2-3.3c0.3-1,0.5-2.2,0.3-3.3c0-0.2-0.1,0-0.2,0.1c-0.2,1-0.4,1.9-0.7,2.9
			c-0.3,1-0.8,2-1.4,2.8c-0.1,0.2-0.2,0.6,0,0.8C39.2,358.3,39.5,358.2,39.6,358z"/>
		<path class="st1" d="M39.4,357.6c-1-1.3-2.2-2-3.8-3c-0.7-0.4-1.3-0.7-2-1c-0.7-0.3-2.1-0.6-2.6-0.6c0,0-0.2,0.1-0.2,0.1
			c0.7,0.2,1.7,0.6,2.4,0.9c0.9,0.4,1.4,0.7,2.1,1.1c1.6,1,2.5,1.8,3.7,2.9C39.2,358.4,39.6,357.9,39.4,357.6z"/>
		<path class="st0" d="M38.9,363.8c0-1.2-0.7-3.2-3-4.3c-2.3-1.1-5.1-1-5.3-0.8c-0.2,0.2,0.8,2.8,3.3,4.4
			C36.4,364.6,38.1,364,38.9,363.8z"/>
		<path class="st1" d="M42.3,367.2c-0.8-1.4-1.7-2.4-3.1-3.7c-0.6-0.5-1.1-0.9-1.8-1.3c-0.7-0.4-1.9-1-2.4-1.1c0,0-0.2,0-0.2,0.1
			c0.6,0.3,1.5,0.9,2.2,1.4c0.8,0.6,1.2,0.9,1.8,1.5c1.3,1.3,2.1,2.3,3,3.6C41.9,367.9,42.4,367.5,42.3,367.2z"/>
	</g>
	<g id="Plants_00000109732382857485680540000012654371575770842033_">
		<path class="st0" d="M50.6,337c-0.5-1.2-0.8-3.5,0.9-5.6c1.8-2.1,4.5-3.4,4.8-3.2c0.3,0.1,0.6,3.1-1.2,5.8
			C53.4,336.6,51.4,336.8,50.6,337z"/>
		<path class="st0" d="M50.6,343.9c0.1-1.3,0.8-3.5,3.4-4.6c2.6-1.1,5.6-0.9,5.8-0.7c0.2,0.3-0.9,3-3.7,4.6
			C53.3,344.8,51.4,344,50.6,343.9z"/>
		<path class="st0" d="M45.6,345.8c-1.3-0.3-3.3-1.4-3.9-4.1c-0.6-2.7-0.2-5.4,0.1-5.6c0.3-0.2,3.1,1.5,4.3,4.2
			C47.4,343.2,46,345.1,45.6,345.8z"/>
		<path class="st1" d="M46.9,369.4c-1-2.3-1.3-4.9-1.5-7.3c-0.2-2.3-0.1-4.7,0.1-7c0.4-4.8,1.5-9.6,3.2-14.2
			c1.1-2.9,2.3-5.9,4.3-8.3c0-0.1,0.2,0,0.2,0.1c-1.8,3.3-2.4,5.2-3.4,7.8c-0.8,2.3-1.6,4.7-2.1,7.3c-0.9,4.7-1.2,8.5-1,12.9
			c0.1,2.9,0.7,5.6,1.1,8.5C47.9,369.8,47.1,370,46.9,369.4z"/>
		<path class="st1" d="M46.6,347.9c-0.8-1-1.4-2.1-1.9-3.2c-0.5-1.1-0.9-2.3-1-3.5c0-0.2,0.2,0,0.2,0.1c0.4,1,0.8,2,1.3,3
			c0.5,1,1.2,1.9,2,2.8c0.2,0.2,0.3,0.6,0.1,0.9C47.1,348.1,46.7,348.1,46.6,347.9z"/>
		<path class="st1" d="M46.8,347.4c0.9-1.5,2-2.6,3.5-3.9c0.7-0.6,1.2-0.9,2-1.4c0.7-0.5,2.1-1.1,2.6-1.1c0,0,0.3,0,0.2,0.1
			c-0.7,0.3-1.7,1-2.4,1.4c-0.9,0.6-1.4,1-2,1.6c-1.5,1.4-2.4,2.4-3.4,3.8C47.1,348.2,46.6,347.7,46.8,347.4z"/>
		<path class="st0" d="M48.5,354c-0.2-1.3,0.1-3.6,2.4-5.2c2.3-1.6,5.2-2.1,5.5-1.9c0.3,0.2-0.3,3.1-2.7,5.3
			C51.3,354.3,49.3,354,48.5,354z"/>
		<path class="st1" d="M45.5,358.3c0.5-1.7,1.4-2.9,2.6-4.5c0.5-0.7,1-1.2,1.6-1.8c0.6-0.6,1.8-1.5,2.3-1.7c0,0,0.3,0,0.2,0
			c-0.6,0.5-1.5,1.3-2.1,1.9c-0.7,0.7-1.1,1.3-1.6,2c-1.2,1.6-1.8,2.8-2.5,4.4C46,358.9,45.4,358.5,45.5,358.3z"/>
	</g>
	<g id="Plants_00000098929424307535720360000006071002857172654244_">
		<path class="st0" d="M467.1,348.8c-0.3-1.2-0.2-3.3,1.8-4.9c2-1.6,4.6-2.3,4.9-2.2c0.3,0.2,0,2.9-2.1,5.1
			C469.7,348.9,467.8,348.7,467.1,348.8z"/>
		<path class="st0" d="M465.9,355c0.3-1.2,1.3-3,3.8-3.6c2.5-0.6,5.2,0,5.3,0.3c0.2,0.3-1.3,2.6-4.2,3.6
			C468.2,356.3,466.6,355.3,465.9,355z"/>
		<path class="st0" d="M461.1,356c-1.1-0.5-2.8-1.8-2.9-4.4c-0.1-2.6,0.7-4.9,1-5c0.3-0.1,2.6,1.9,3.2,4.5
			C463.1,353.9,461.5,355.4,461.1,356z"/>
		<path class="st1" d="M458.3,377.6c-0.6-2.2-0.4-4.6-0.2-6.9c0.2-2.1,0.6-4.2,1.2-6.3c1.2-4.3,3-8.5,5.2-12.3
			c1.5-2.4,3.1-5,5.3-6.8c0,0,0.2,0.1,0.1,0.1c-2.2,2.7-3,4.3-4.3,6.5c-1.1,1.9-2.2,4-3.1,6.3c-1.6,4.1-2.5,7.5-3,11.5
			c-0.4,2.6-0.3,5.2-0.4,7.9C459.2,378,458.5,378.2,458.3,377.6z"/>
		<path class="st1" d="M461.6,358c-0.5-1-0.9-2.1-1.2-3.3c-0.3-1-0.5-2.2-0.3-3.3c0-0.2,0.1,0,0.2,0.1c0.2,1,0.4,1.9,0.7,2.9
			c0.3,1,0.8,2,1.4,2.8c0.1,0.2,0.2,0.6,0,0.8C462,358.3,461.7,358.2,461.6,358z"/>
		<path class="st1" d="M461.9,357.6c1-1.3,2.2-2,3.8-3c0.7-0.4,1.3-0.7,2-1c0.7-0.3,2.1-0.6,2.6-0.6c0,0,0.2,0.1,0.2,0.1
			c-0.7,0.2-1.7,0.6-2.4,0.9c-0.9,0.4-1.4,0.7-2.1,1.1c-1.6,1-2.5,1.8-3.7,2.9C462.1,358.4,461.7,357.9,461.9,357.6z"/>
		<path class="st0" d="M462.4,363.8c0-1.2,0.7-3.2,3-4.3s5.1-1,5.3-0.8c0.2,0.2-0.8,2.8-3.3,4.4C464.9,364.6,463.1,364,462.4,363.8z
			"/>
		<path class="st1" d="M459,367.2c0.8-1.4,1.7-2.4,3.1-3.7c0.6-0.5,1.1-0.9,1.8-1.3c0.7-0.4,1.9-1,2.4-1.1c0,0,0.2,0,0.2,0.1
			c-0.6,0.3-1.5,0.9-2.2,1.4c-0.8,0.6-1.2,0.9-1.8,1.5c-1.3,1.3-2.1,2.3-3,3.6C459.3,367.9,458.8,367.5,459,367.2z"/>
	</g>
	<g id="Plants_00000160172722574768069460000018325856153133317272_">
		<path class="st0" d="M452.6,337c0.5-1.2,0.8-3.5-0.9-5.6c-1.8-2.1-4.5-3.4-4.8-3.2c-0.3,0.1-0.6,3.1,1.2,5.8
			C449.8,336.6,451.8,336.8,452.6,337z"/>
		<path class="st0" d="M452.7,343.9c-0.1-1.3-0.8-3.5-3.4-4.6c-2.6-1.1-5.6-0.9-5.8-0.7c-0.2,0.3,0.9,3,3.7,4.6
			C450,344.8,451.9,344,452.7,343.9z"/>
		<path class="st0" d="M457.6,345.8c1.3-0.3,3.3-1.4,3.9-4.1c0.6-2.7,0.2-5.4-0.1-5.6c-0.3-0.2-3.1,1.5-4.3,4.2
			C455.8,343.2,457.3,345.1,457.6,345.8z"/>
		<path class="st1" d="M456.4,369.4c1-2.3,1.3-4.9,1.5-7.3c0.2-2.3,0.1-4.7-0.1-7c-0.4-4.8-1.5-9.6-3.2-14.2
			c-1.1-2.9-2.3-5.9-4.3-8.3c0-0.1-0.2,0-0.2,0.1c1.8,3.3,2.4,5.2,3.4,7.8c0.8,2.3,1.6,4.7,2.1,7.3c0.9,4.7,1.2,8.5,1,12.9
			c-0.1,2.9-0.7,5.6-1.1,8.5C455.4,369.8,456.1,370,456.4,369.4z"/>
		<path class="st1" d="M456.7,347.9c0.8-1,1.4-2.1,1.9-3.2c0.5-1.1,0.9-2.3,1-3.5c0-0.2-0.2,0-0.2,0.1c-0.4,1-0.8,2-1.3,3
			c-0.5,1-1.2,1.9-2,2.8c-0.2,0.2-0.3,0.6-0.1,0.9C456.2,348.1,456.5,348.1,456.7,347.9z"/>
		<path class="st1" d="M456.5,347.4c-0.9-1.5-2-2.6-3.5-3.9c-0.7-0.6-1.2-0.9-2-1.4c-0.7-0.5-2.1-1.1-2.6-1.1c0,0-0.3,0-0.2,0.1
			c0.7,0.3,1.7,1,2.4,1.4c0.9,0.6,1.4,1,2,1.6c1.5,1.4,2.4,2.4,3.4,3.8C456.1,348.2,456.6,347.7,456.5,347.4z"/>
		<path class="st0" d="M454.7,354c0.2-1.3-0.1-3.6-2.4-5.2c-2.3-1.6-5.2-2.1-5.5-1.9c-0.3,0.2,0.3,3.1,2.7,5.3
			C451.9,354.3,453.9,354,454.7,354z"/>
		<path class="st1" d="M457.7,358.3c-0.5-1.7-1.4-2.9-2.6-4.5c-0.5-0.7-1-1.2-1.6-1.8c-0.6-0.6-1.8-1.5-2.3-1.7c0,0-0.3,0-0.2,0
			c0.6,0.5,1.5,1.3,2.1,1.9c0.7,0.7,1.1,1.3,1.6,2c1.2,1.6,1.8,2.8,2.5,4.4C457.2,358.9,457.8,358.5,457.7,358.3z"/>
	</g>
	<g id="Plants_2_">
		<path class="st0" d="M182.5,395.6c0.3-1.2,0.2-3.3-1.8-4.9c-2-1.6-4.6-2.3-4.9-2.2c-0.3,0.2,0,2.9,2.1,5.1
			C179.8,395.7,181.7,395.5,182.5,395.6z"/>
		<path class="st0" d="M183.6,401.8c-0.3-1.2-1.3-3-3.8-3.6c-2.5-0.6-5.2,0-5.3,0.3c-0.2,0.3,1.3,2.6,4.2,3.6
			C181.4,403.1,182.9,402.1,183.6,401.8z"/>
		<path class="st0" d="M188.4,402.8c1.1-0.5,2.8-1.8,2.9-4.4c0.1-2.6-0.7-4.9-1-5c-0.3-0.1-2.6,1.9-3.2,4.5
			C186.4,400.7,188,402.2,188.4,402.8z"/>
		<path class="st1" d="M191.2,424.4c0.6-2.2,0.4-4.6,0.2-6.9c-0.2-2.1-0.6-4.2-1.2-6.3c-1.2-4.3-3-8.5-5.2-12.3
			c-1.5-2.4-3.1-5-5.3-6.8c0,0-0.2,0.1-0.1,0.1c2.2,2.7,3,4.3,4.3,6.5c1.1,1.9,2.2,4,3.1,6.3c1.6,4.1,2.5,7.5,3,11.5
			c0.4,2.6,0.3,5.2,0.4,7.9C190.4,424.8,191.1,425,191.2,424.4z"/>
		<path class="st1" d="M187.9,404.8c0.5-1,0.9-2.1,1.2-3.3c0.3-1,0.5-2.2,0.3-3.3c0-0.2-0.1,0-0.2,0.1c-0.2,1-0.4,1.9-0.7,2.9
			c-0.3,1-0.8,2-1.4,2.8c-0.1,0.2-0.2,0.6,0,0.8C187.5,405.1,187.8,405,187.9,404.8z"/>
		<path class="st1" d="M187.7,404.4c-1-1.3-2.2-2-3.8-3c-0.7-0.4-1.3-0.7-2-1c-0.7-0.3-2.1-0.6-2.6-0.6c0,0-0.2,0.1-0.2,0.1
			c0.7,0.2,1.7,0.6,2.4,0.9c0.9,0.4,1.4,0.7,2.1,1.1c1.6,1,2.5,1.8,3.7,2.9C187.5,405.2,187.8,404.7,187.7,404.4z"/>
		<path class="st0" d="M187.2,410.6c0-1.2-0.7-3.2-3-4.3c-2.3-1.1-5.1-1-5.3-0.8c-0.2,0.2,0.8,2.8,3.3,4.4
			C184.7,411.4,186.4,410.8,187.2,410.6z"/>
		<path class="st1" d="M190.6,414c-0.8-1.4-1.7-2.4-3.1-3.7c-0.6-0.5-1.1-0.9-1.8-1.3c-0.7-0.4-1.9-1-2.4-1.1c0,0-0.2,0-0.2,0.1
			c0.6,0.3,1.5,0.9,2.2,1.4c0.8,0.6,1.2,0.9,1.8,1.5c1.3,1.3,2.1,2.3,3,3.6C190.2,414.7,190.7,414.3,190.6,414z"/>
	</g>
	<g id="Plants_1_">
		<path class="st0" d="M198.9,383.8c-0.5-1.2-0.8-3.5,0.9-5.6c1.8-2.1,4.5-3.4,4.8-3.2c0.3,0.1,0.6,3.1-1.2,5.8
			C201.7,383.4,199.7,383.6,198.9,383.8z"/>
		<path class="st0" d="M198.9,390.7c0.1-1.3,0.8-3.5,3.4-4.6c2.6-1.1,5.6-0.9,5.8-0.7c0.2,0.3-0.9,3-3.7,4.6
			C201.6,391.6,199.7,390.8,198.9,390.7z"/>
		<path class="st0" d="M193.9,392.6c-1.3-0.3-3.3-1.4-3.9-4.1c-0.6-2.7-0.2-5.4,0.1-5.6c0.3-0.2,3.1,1.5,4.3,4.2
			C195.7,390,194.2,391.9,193.9,392.6z"/>
		<path class="st1" d="M195.2,416.2c-1-2.3-1.3-4.9-1.5-7.3c-0.2-2.3-0.1-4.7,0.1-7c0.4-4.8,1.5-9.6,3.2-14.2
			c1.1-2.9,2.3-5.9,4.3-8.3c0-0.1,0.2,0,0.2,0.1c-1.8,3.3-2.4,5.2-3.4,7.8c-0.8,2.3-1.6,4.7-2.1,7.3c-0.9,4.7-1.2,8.5-1,12.9
			c0.1,2.9,0.7,5.6,1.1,8.5C196.2,416.6,195.4,416.8,195.2,416.2z"/>
		<path class="st1" d="M194.9,394.7c-0.8-1-1.4-2.1-1.9-3.2c-0.5-1.1-0.9-2.3-1-3.5c0-0.2,0.2,0,0.2,0.1c0.4,1,0.8,2,1.3,3
			c0.5,1,1.2,1.9,2,2.8c0.2,0.2,0.3,0.6,0.1,0.9C195.4,394.9,195,394.9,194.9,394.7z"/>
		<path class="st1" d="M195.1,394.2c0.9-1.5,2-2.6,3.5-3.9c0.7-0.6,1.2-0.9,2-1.4c0.7-0.5,2.1-1.1,2.6-1.1c0,0,0.3,0,0.2,0.1
			c-0.7,0.3-1.7,1-2.4,1.4c-0.9,0.6-1.4,1-2,1.6c-1.5,1.4-2.4,2.4-3.4,3.8C195.4,395,194.9,394.5,195.1,394.2z"/>
		<path class="st0" d="M196.8,400.8c-0.2-1.3,0.1-3.6,2.4-5.2c2.3-1.6,5.2-2.1,5.5-1.9c0.3,0.2-0.3,3.1-2.7,5.3
			C199.6,401.1,197.6,400.8,196.8,400.8z"/>
		<path class="st1" d="M193.8,405.1c0.5-1.7,1.4-2.9,2.6-4.5c0.5-0.7,1-1.2,1.6-1.8c0.6-0.6,1.8-1.5,2.3-1.7c0,0,0.3,0,0.2,0
			c-0.6,0.5-1.5,1.3-2.1,1.9c-0.7,0.7-1.1,1.3-1.6,2c-1.2,1.6-1.8,2.8-2.5,4.4C194.3,405.7,193.7,405.3,193.8,405.1z"/>
	</g>
	<g id="Plants_4_">
		<path class="st0" d="M300.1,397.6c-0.3-1.2-0.2-3.3,1.8-4.9c2-1.6,4.6-2.3,4.9-2.2c0.3,0.2,0,2.9-2.1,5.1
			C302.7,397.7,300.8,397.5,300.1,397.6z"/>
		<path class="st0" d="M298.9,403.8c0.3-1.2,1.3-3,3.8-3.6c2.5-0.6,5.2,0,5.3,0.3c0.2,0.3-1.3,2.6-4.2,3.6
			C301.2,405.1,299.6,404.1,298.9,403.8z"/>
		<path class="st0" d="M294.1,404.8c-1.1-0.5-2.8-1.8-2.9-4.4c-0.1-2.6,0.7-4.9,1-5c0.3-0.1,2.6,1.9,3.2,4.5
			C296.2,402.7,294.5,404.2,294.1,404.8z"/>
		<path class="st1" d="M291.4,426.4c-0.6-2.2-0.4-4.6-0.2-6.9c0.2-2.1,0.6-4.2,1.2-6.3c1.2-4.3,3-8.5,5.2-12.3
			c1.5-2.4,3.1-5,5.3-6.8c0,0,0.2,0.1,0.1,0.1c-2.2,2.7-3,4.3-4.3,6.5c-1.1,1.9-2.2,4-3.1,6.3c-1.6,4.1-2.5,7.5-3,11.5
			c-0.4,2.6-0.3,5.2-0.4,7.9C292.2,426.8,291.5,427,291.4,426.4z"/>
		<path class="st1" d="M294.6,406.8c-0.5-1-0.9-2.1-1.2-3.3c-0.3-1-0.5-2.2-0.3-3.3c0-0.2,0.1,0,0.2,0.1c0.2,1,0.4,1.9,0.7,2.9
			c0.3,1,0.8,2,1.4,2.8c0.1,0.2,0.2,0.6,0,0.8C295,407.1,294.8,407,294.6,406.8z"/>
		<path class="st1" d="M294.9,406.4c1-1.3,2.2-2,3.8-3c0.7-0.4,1.3-0.7,2-1c0.7-0.3,2.1-0.6,2.6-0.6c0,0,0.2,0.1,0.2,0.1
			c-0.7,0.2-1.7,0.6-2.4,0.9c-0.9,0.4-1.4,0.7-2.1,1.1c-1.6,1-2.5,1.8-3.7,2.9C295.1,407.2,294.7,406.7,294.9,406.4z"/>
		<path class="st0" d="M295.4,412.6c0-1.2,0.7-3.2,3-4.3c2.3-1.1,5.1-1,5.3-0.8c0.2,0.2-0.8,2.8-3.3,4.4
			C297.9,413.4,296.1,412.8,295.4,412.6z"/>
		<path class="st1" d="M292,416c0.8-1.4,1.7-2.4,3.1-3.7c0.6-0.5,1.1-0.9,1.8-1.3c0.7-0.4,1.9-1,2.4-1.1c0,0,0.2,0,0.2,0.1
			c-0.6,0.3-1.5,0.9-2.2,1.4c-0.8,0.6-1.2,0.9-1.8,1.5c-1.3,1.3-2.1,2.3-3,3.6C292.3,416.7,291.9,416.3,292,416z"/>
	</g>
	<g id="Plants_3_">
		<path class="st0" d="M285.7,385.8c0.5-1.2,0.8-3.5-0.9-5.6c-1.8-2.1-4.5-3.4-4.8-3.2c-0.3,0.1-0.6,3.1,1.2,5.8
			C282.8,385.4,284.9,385.6,285.7,385.8z"/>
		<path class="st0" d="M285.7,392.7c-0.1-1.3-0.8-3.5-3.4-4.6c-2.6-1.1-5.6-0.9-5.8-0.7c-0.2,0.3,0.9,3,3.7,4.6
			C283,393.6,284.9,392.8,285.7,392.7z"/>
		<path class="st0" d="M290.6,394.6c1.3-0.3,3.3-1.4,3.9-4.1c0.6-2.7,0.2-5.4-0.1-5.6c-0.3-0.2-3.1,1.5-4.3,4.2
			C288.9,392,290.3,393.9,290.6,394.6z"/>
		<path class="st1" d="M289.4,418.2c1-2.3,1.3-4.9,1.5-7.3c0.2-2.3,0.1-4.7-0.1-7c-0.4-4.8-1.5-9.6-3.2-14.2
			c-1.1-2.9-2.3-5.9-4.3-8.3c0-0.1-0.2,0-0.2,0.1c1.8,3.3,2.4,5.2,3.4,7.8c0.8,2.3,1.6,4.7,2.1,7.3c0.9,4.7,1.2,8.5,1,12.9
			c-0.1,2.9-0.7,5.6-1.1,8.5C288.4,418.6,289.1,418.8,289.4,418.2z"/>
		<path class="st1" d="M289.7,396.7c0.8-1,1.4-2.1,1.9-3.2c0.5-1.1,0.9-2.3,1-3.5c0-0.2-0.2,0-0.2,0.1c-0.4,1-0.8,2-1.3,3
			c-0.5,1-1.2,1.9-2,2.8c-0.2,0.2-0.3,0.6-0.1,0.9C289.2,396.9,289.5,396.9,289.7,396.7z"/>
		<path class="st1" d="M289.5,396.2c-0.9-1.5-2-2.6-3.5-3.9c-0.7-0.6-1.2-0.9-2-1.4c-0.7-0.5-2.1-1.1-2.6-1.1c0,0-0.3,0-0.2,0.1
			c0.7,0.3,1.7,1,2.4,1.4c0.9,0.6,1.4,1,2,1.6c1.5,1.4,2.4,2.4,3.4,3.8C289.2,397,289.6,396.5,289.5,396.2z"/>
		<path class="st0" d="M287.8,402.8c0.2-1.3-0.1-3.6-2.4-5.2c-2.3-1.6-5.2-2.1-5.5-1.9c-0.3,0.2,0.3,3.1,2.7,5.3
			C284.9,403.1,286.9,402.8,287.8,402.8z"/>
		<path class="st1" d="M290.7,407.1c-0.5-1.7-1.4-2.9-2.6-4.5c-0.5-0.7-1-1.2-1.6-1.8c-0.6-0.6-1.8-1.5-2.3-1.7c0,0-0.3,0-0.2,0
			c0.6,0.5,1.5,1.3,2.1,1.9c0.7,0.7,1.1,1.3,1.6,2c1.2,1.6,1.8,2.8,2.5,4.4C290.2,407.7,290.8,407.3,290.7,407.1z"/>
	</g>
</g>
<g id="Shadows">
	<ellipse id="Shadow_00000157996283174683409270000016405505137525331593_" class="st2" cx="241.6" cy="433.2" rx="53.7" ry="31"/>
	<ellipse id="Shadow_00000114759955152919159700000001575149256441201055_" class="st2" cx="409.4" cy="383.3" rx="53.7" ry="31"/>
	<ellipse id="Shadow_00000178887427386398805790000003544599476138811327_" class="st2" cx="91.1" cy="383.3" rx="53.7" ry="31"/>
</g>
<g id="Character_3">
	<g id="Character_7_">
		<g id="Bottom_00000118372097195696232800000016065906636923793806_">
			<g>
				<path class="st3" d="M431.7,396c0.3,3.4,0.9,5.7,2.3,7.7c1.3,1.9,3.7,2.5,6.1,1.8c2.4-0.7,4.9-2.5,5.9-5.3
					c0.9-2.4,0.9-5,0.2-8.1L431.7,396z"/>
				<path id="XMLID_376_" class="st1" d="M441.4,373.4c0.6,2.3,0.8,3.8,1.6,6.9c1.2,4.8,2.4,6.8,3.1,10.8c0.8,4.6,0.3,6.8-1.5,9.5
					c-1.8,2.7-7.4,5.8-10.4,2c-2.5-3.1-2.8-6.7-2.7-11.3c0-4.8-0.4-8-0.8-11.6c0,0,0,0,0-0.1c-0.1-1.2-0.3-3.7-0.5-4.9
					c-0.4-2.7,1.4-3,2.2-3.4c1-0.5,2.1-1,3.2-1.2c1.1-0.2,2.3-0.1,3.4,0.2C440.3,370.6,440.9,371.3,441.4,373.4z"/>
			</g>
			<g>
				<path class="st3" d="M365.3,381.7c-0.2,0-0.5,2.3,0.7,3.2c1.4,1.1,5.4,2.8,10.5,2c5.2-0.8,7.9-2.4,10-4.2c2-1.7,4.9-4.2,7.2-4.8
					c2.2-0.5,5-1.7,5.7-2.4c0.7-0.7,0.5-3.6,0.5-3.6L365.3,381.7z"/>
				<path id="XMLID_00000160905275751605527570000008848594522981303477_" class="st1" d="M397.5,362.7c0.2,0,0.5,0,0.7,0.2
					c0.6,0.3,0.7,1.1,0.8,1.7c0.1,0.6,0.1,1.2,0.3,1.7c0.7,1.8,1.1,4.9,0.7,6.7c-0.4,1.5-4.3,2.8-6.5,3.7c-2.3,0.9-4.9,2.8-7.2,4.7
					c-2.4,2-7.5,4.1-10.9,4.3c-5.2,0.2-8.6-1-9.6-2.8c-1.3-2.2-0.4-3.5,5.5-6.3c1.1-0.5,5-2.9,6.3-3.8c1.4-0.9,2.7-1.9,4-3
					c0.6-0.6,1.2-1.2,1.8-1.8c0.8-0.9,1.9-1.7,2.9-2.5c0.7-0.6,1.4-1.2,2.2-1.6c1.3-0.7,2.8-1.1,4.2-1.2c1.5-0.1,2.9,0.2,4.4,0
					C397.1,362.7,397.3,362.7,397.5,362.7z"/>
			</g>
			<g>
				<path class="st4" d="M440.8,372.2c-1.2-9.9-0.4-20.9-1.8-36.4v0c-0.2-4-0.6-8.2-1-12c-1.4-12.7-3.7-17-4-19.4
					c0,0-0.1-25-2.1-52.8c-0.9-13.1-5-16.9-8.5-23.7l-39,1.5c-3.5,17.3-2.7,56.5-1.8,74.2c0.4,9,2.8,41.4,2.9,56.1
					c0,4.3-0.8,5.9-2.4,7.6c-3.2,3.6-7.3,6.2-11.3,9c-1.1,2.4,4.4,3.7,9,1.2c3.9-2.1,8.3-4.7,9.7-5.8c3.4-2.6,7-4.4,7.6-8.1
					c0.3-1.5,7.3-36,7.5-43.5c0.1-6.5-1.1-17.4-1.1-17.4l3.2-27.5c0,0,4.3,20.9,6.8,32c2.6,11.1,5.4,24.2,8.3,35.1l0,0
					c2.9,12.6,6.8,24.8,7.6,31.2c0.2,1.5,2.6,16.3,3.5,19.7c0.9,3.4,8.6,3.2,8.9-2.7C442.9,386.7,441,374.1,440.8,372.2z"/>
			</g>
			<g>
				<g>
					<path class="st5" d="M424.5,228.1c4.7,7.6,8.3,13.9,9.7,37c1.4,23.2,1.3,37.2,1.5,40c0.2,2.8,1.7,4.8,3.7,18.5
						c2,13.7,1,30.4,1,30.4s-1.3,2.6-6.8,3.3c-5,0.6-7.6-1.1-7.6-1.1s-6.8-25.4-9.1-34.8c-2-8.3-9.1-40.4-9.1-40.4l-2.4,22.2
						c0,0,2.1,8.1,0.4,20.3c-1.6,12.1-4.3,24.1-4.3,24.1s-2.5,0.9-7.8,1c-4.3,0.1-9.1-1.7-9.1-1.7s-2.6-35-3.1-48.7
						c-0.6-13.7-1.6-51.7,2.7-68.3L424.5,228.1z"/>
				</g>
				<path class="st4" d="M430.7,305.3c0,0-2.9-2.7-8.2-1.8c-5.3,0.8-7.3,3.9-7.3,3.9C420.8,304.7,430.7,305.3,430.7,305.3z
					 M418.3,308.2c3.2,0.5,6.3,0.6,13.1-1C428.1,306.6,418.3,308.2,418.3,308.2z"/>
				<g>
					<path class="st4" d="M381.7,300.3c0,0.5,0,1,0.1,1.5c1.3-0.1,7.4-0.7,13.5-0.1C393.4,300.7,386.3,299.6,381.7,300.3z"/>
					<path class="st4" d="M381.9,303.7c0,0.5,0,0.9,0.1,1.4c1.1-0.1,7.4-0.7,10.2-1.6C387.5,303.4,382.9,303.7,381.9,303.7z"/>
				</g>
				<g>
					<path class="st1" d="M434.3,309.9c-1.6-6.3-1.7-18.6-2.1-29.2c-0.1-3.2-0.3-6.5-0.4-10c-0.7-13.8-2.4-29.2-10.1-38.9l-0.6,0.4
						c5.1,6.5,7.6,15.7,8.8,25.2c-7.2-0.6-9.1-7.4-11.6-16.7c-0.3-1.3-0.7-2.6-1.1-4l-0.7,0.2c0.4,1.4,0.7,2.7,1.1,3.9
						c2.5,9.3,4.5,16.7,12.4,17.3c0.5,4.2,0.8,8.5,1,12.6c0.2,3.5,0.3,6.8,0.4,10c0.4,10.6,0.4,22.9,2.1,29.3
						c0.2,0.7,0.4,1.5,0.6,2.3c2.2,8.2,4.8,21.9,4.3,43.6c0.3-0.2,0.5-0.3,0.7-0.5c0.4-21.5-2.1-35.1-4.3-43.3
						C434.6,311.4,434.4,310.6,434.3,309.9z"/>
					<path class="st1" d="M408,281l-5.6-26.1c0,0-9.5-0.3-15-5.4c1.2,4.5,8.9,8,12.3,8.7l1.1,4.6c-0.1,2.5-0.1,5.1-0.2,7.7
						c-0.4,14.8-0.8,30,0,33.4c1.5,6.7,1.1,13.1,0.2,21.8c-0.8,7.9-2.1,17.6-3,22.6c0.3,0,0.5-0.1,0.7-0.1c0.9-4.9,2-13.6,3.1-22.5
						c1.1-8.9,1.4-15-0.4-22c-0.8-3.3-0.4-19.2,0-33.2c0.1-1.7,0.1-3.4,0.1-5l3.7,16.2l0.4,21.5L408,281z"/>
				</g>
			</g>
		</g>
		<g id="Top_1_">
			<g>
				<g>
					<path class="st4" d="M334.6,190.4c-0.5-1.7-0.7-3.5-0.8-5.3c-0.1-1-0.1-1.9,0-2.9c0.1-1.2,0.3-0.7,1.2-1.1
						c0.3-0.1,0.4-0.4,0.4-0.7c0-0.3,0-0.6,0-0.8c0.1-0.4,0.4-0.8,0.7-0.9c0.2-0.1,0.4-0.1,0.6-0.2c0.4-0.3,0.3-0.9,0.5-1.3
						c0.2-0.5,1-0.7,1.5-0.5c0.5,0.2,0.9,0.8,1.1,1.4c0,0.1,0.1,0.2,0.1,0.3c0.1,0.2,0.4,0.2,0.6,0.2c0.7,0.1,1.3,0.6,1.6,1.2
						c0.9,1.5,0.7,3.5,1.1,5.1c0.3,1.2,0.8,2.2,1.5,3.2c0.1,0.1,0.3,0.3,0.4,0.3c0.2,0,0.3-0.3,0.3-0.5c0.3-1.8-0.7-3.8,0-5.5
						c0.2-0.6,0.6-1.1,1-1.6c0.1-0.1,0.2-0.2,0.3-0.3c0.3-0.1,0.6,0.1,0.8,0.4c0.2,0.5,0.2,1.2,0.3,1.7c0.3,1.4,0.6,2.7,1.2,4.1
						c0.5,1.2,0.8,2.4,1,3.6c0.2,1-0.1,2.4,0.3,3.4c0.1,0.2,0.3,0.4,0.4,0.6c1.4,1.6,9,7.9,11.3,9.7c1.7,1.2,3.3,2.5,5,3.7
						c0,0,6.2-7.7,9.7-11.6c8.1-9,9.4-10.8,16.4-10.2l-6.3,22.2c0,0-6.7,6.4-13.8,12.6c-4.2,3.7-7.2,4.2-13.2-2.1
						c-3.5-3.6-11.1-12.1-12.8-14c-1.6-1.7-3.5-2.8-5.3-4.3c-2.5-2.2-5.3-4.4-6.4-7.6C335,191.9,334.8,191.1,334.6,190.4z"/>
				</g>
				<path class="st3" d="M393.3,185.4c-4.6,0.1-7.8-0.1-12,4.6c-3.2,3.6-4.4,5.1-4.4,5.1s-0.8,4.6,2.4,9.6c2.3,3.6,5.4,5.6,5.4,5.6
					l3.3-2.9L393.3,185.4z"/>
			</g>
			<g>
				<path class="st3" d="M430.7,240c-2.8-8.6-5.6-12.7-5.2-16.7c0.7-6.2,3.2-13.9,3.4-18.2c0.6-15.2-2.3-16.7-5-17.8
					c0,0-4.9-1.1-7.5-1.7c-1.6-0.4-4.8-0.8-4.8-0.8c-2.5-0.1-7.4,0-9.5,0.2c-1,0.1-2.8,0-2.8,0s-6.2,0.4-6.2,0.4
					c0,0-4.7,3.9-9.3,10.2c-4.7,6.4-6.5,14,0.3,19.7c0,0,0.3,6,0.3,8.7c-0.3,3.8-1.6,10.7-2.2,18.7
					C392.8,252.3,418.8,250.1,430.7,240z"/>
			</g>
			<g id="_x34__00000115481170762635119970000004691509338863442602_">
				<polygon class="st0" points="406.1,204.7 394.7,194.8 403.3,149.3 386.5,134.7 373.4,139.3 367.3,171.2 354.5,160.2 400.5,86.1 
					382.3,70.5 369.2,75.1 320.1,153.8 316.7,171.4 360.1,208.9 355.1,235.2 371.9,249.8 385.1,245.2 387.5,232.5 388.4,233.2 
					401.5,228.7 				"/>
				<polygon class="st6" points="406.1,204.7 394.7,194.8 403.3,149.3 386.5,134.7 373.4,139.3 367.3,171.2 354.5,160.2 400.5,86.1 
					382.3,70.5 369.2,75.1 320.1,153.8 316.7,171.4 360.1,208.9 355.1,235.2 371.9,249.8 385.1,245.2 387.5,232.5 388.4,233.2 
					401.5,228.7 				"/>
				<g id="_x34__00000142136102927938002320000003860845869607581085_">
					<g>
						<polygon class="st0" points="381.5,199.4 390.2,153.9 373.4,139.3 364.7,184.9 341.4,164.8 387.3,90.7 369.2,75.1 
							320.1,153.8 316.7,171.4 360.1,208.9 355.1,235.2 371.9,249.8 377,223.4 388.4,233.2 392.9,209.3 						"/>
						<polygon class="st7" points="381.5,199.4 390.2,153.9 373.4,139.3 364.7,184.9 341.4,164.8 387.3,90.7 369.2,75.1 
							320.1,153.8 316.7,171.4 360.1,208.9 355.1,235.2 371.9,249.8 377,223.4 388.4,233.2 392.9,209.3 						"/>
					</g>
				</g>
				<polygon class="st0" points="369.2,75.1 387.3,90.7 400.5,86.1 382.3,70.5 				"/>
				<polygon class="st8" points="369.2,75.1 387.3,90.7 400.5,86.1 382.3,70.5 				"/>
				<polygon class="st0" points="373.4,139.3 386.5,134.7 403.3,149.3 390.2,153.9 				"/>
				<polygon class="st8" points="373.4,139.3 386.5,134.7 403.3,149.3 390.2,153.9 				"/>
				<polygon class="st0" points="381.5,199.4 394.7,194.8 406.1,204.7 392.9,209.3 				"/>
				<polygon class="st8" points="381.5,199.4 394.7,194.8 406.1,204.7 392.9,209.3 				"/>
				<polygon class="st0" points="341.4,164.8 354.5,160.2 367.3,171.2 364.7,184.9 				"/>
				<polygon class="st8" points="341.4,164.8 354.5,160.2 367.3,171.2 364.7,184.9 				"/>
			</g>
			<g id="Head_00000106866678638241098920000015996962722962898346_">
				<path class="st3" d="M423,167.2c1,0,2.1-0.4,2.8-1.2c1.2-1.1,1.7-2.9,3.1-3.7c1-0.5,2.2-0.4,3.3-0.7c1.7-0.5,3-2.1,3.1-3.9
					c0.1-1.8-1-3.6-0.6-5.4c0.2-1.1,1-2.1,1.5-3.1c0.9-2.2,0-4.9-2-6.1c-0.9-0.6-2-0.8-2.9-1.3c-1.9-1.1-1.6-3.4-3.3-4.8
					c-1.4-1.2-3.4-1.7-5.2-1.2c-1.2,0.4-2.4,1.3-3.7,1c-0.7-0.1-1.3-0.6-2-1c-2.3-1.3-5.6-0.5-7.1,1.7c-0.5,0.7-0.8,1.5-1.5,1.9
					c-1.3,0.8-1.6,1.7-2.2,3.2c-0.6,1.4-0.7,3.2,0.2,4.5c0.6,0.9,1.7,1.5,2.2,2.5c0.9,1.9-0.8,4-1,6.1c-0.4,4.2,3.9,3.9,5.7,6.3
					c0.6,0.8,1,1.7,1.5,2.6c1,1.7,3.2,1,5,1.7c0.6,0.3,1.2,0.6,1.9,0.8C422.2,167.2,422.6,167.3,423,167.2z"/>
				<path class="st0" d="M418.2,142.9c1.1,0.7,2.1,1.6,2.7,2.7c0.2,0.4,0.4,0.9,0.3,1.4c-0.3,0.8-1.3,1.1-2.2,1.1
					c-3.3,0.1-7.1-1.2-8.4-4.7C409,139,416.6,141.9,418.2,142.9z"/>
				<path class="st3" d="M413.3,177.2c-1.2,0.3-2.3-0.5-3.1-1.4c-1.9-1.9-3.2-4.4-5.1-6.3c-2.3-2.3-5.4-3.7-8.5-4.9
					c-1.6-0.7-3-1.1-4.7-1.2c-1.4-0.1-2.7-1.4-3.3-2.6c-0.7-1.3-0.9-3-0.5-4.4c0.4-1.4,1.3-2.6,1.4-4.1c0.1-1-0.3-2-0.3-3.1
					c-0.1-1.9,1.2-3.8,3-4.5c1.8-0.7,3.9-0.3,5.4-1.4c1.2-0.8,1.7-2.4,3-3.1c0.6-0.4,1.4-0.6,2.1-0.7c2.4-0.3,5,0.3,7,1.7
					c0.8,0.6,1.6,1.2,2.5,1.6c1.2,0.5,2.5,0.5,3.8,0.8c2.3,0.6,4.7,2.2,5.5,4.6c0.5,1.6,0.3,3.2,0.8,4.8c0.5,1.7,1.6,3,2.4,4.6
					c0.9,1.8,1.3,3.9,1.1,6c-0.1,0.8-0.3,1.6-0.7,2.3c-1.1,1.7-3.7,2.1-4.4,4c-0.2,0.6-0.3,1.2-0.4,1.8c-0.5,2.9-3.3,5.3-6.3,5.4
					C413.3,177.1,414,177,413.3,177.2z"/>
				<path class="st4" d="M414.8,182.5c0.1-1.5,0.6-9.1,0.6-9.1c0,0.6,2.7,2.2,5.3-0.6c2.6-2.9,2.4-7,0.7-8.8
					c-2.7-2.7-6.8-0.5-7.3,3.2c-2.2,1.1-2.8-1.6-1.4-4.5c-0.1-2.4-2.6-2.8-2.3-8.1c-0.2-2.6-8.2-5.2-15.3-3.9c-1.5,3-3.3,5.5-3,9.3
					c0.1,1.4-1.1,3-1.2,4.8c-0.7,8,1.4,11.9,3.9,13.3c1.7,1,3.1,1.4,6.2,1.5l-0.3,2.5l0,0c-0.1,1.3,0,2.4-1.3,2.8
					c-0.6,0.8-1.9,6.6,2.4,10.6c8.2-1.8,14.8-8.6,15.3-9.9C415,185,414.7,184,414.8,182.5z"/>
				<g>
					<path id="XMLID_00000148626417359884504510000011802323854671353241_" class="st3" d="M393.1,158.6l3.3-0.6
						c-0.1-0.9-1-1.6-1.9-1.4C393.7,156.8,393,157.7,393.1,158.6z"/>
					<path id="XMLID_00000000941255642628277000000013663279898101182104_" class="st3" d="M405.5,157.7l2.5,2.3
						c-0.6,0.7-1.7,0.8-2.4,0.2C405,159.6,404.9,158.5,405.5,157.7z"/>
					<path id="XMLID_366_" class="st3" d="M396.3,161.5c0,0.8-0.6,1.4-1.4,1.4c-0.8,0-1.4-0.6-1.4-1.4c0-0.8,0.6-1.4,1.4-1.4
						C395.7,160.1,396.3,160.7,396.3,161.5z"/>
					<path id="XMLID_00000138554972863277632540000015731455062766424496_" class="st3" d="M406.3,163.1c0,0.8-0.6,1.4-1.4,1.4
						c-0.8,0-1.4-0.6-1.4-1.4c0-0.8,0.6-1.4,1.4-1.4C405.6,161.7,406.3,162.3,406.3,163.1z"/>
				</g>
				<path class="st9" d="M394.7,167.4l4.2,1.8l1.7-7.9C398.8,161.2,396.8,164,394.7,167.4z"/>
				<g>
					<circle class="st9" cx="400.3" cy="171.9" r="1.4"/>
					<path class="st10" d="M401.6,171.6c0,0.1,0,0.2,0,0.3c0,0.8-0.6,1.4-1.4,1.4c-0.3,0-0.7-0.1-0.9-0.3
						C399.8,172.2,400.7,171.7,401.6,171.6z"/>
				</g>
				<g id="XMLID_00000165195460191427042030000015607208432057980596_">
					<path id="XMLID_00000083086711166777241920000002685705033390613165_" class="st9" d="M400.9,179.7c4,0,6.8-0.7,8.6-1.8
						c1.6-1,2.7-2.3,3.3-3.4c0,0-0.9,2.9-2.9,4.5c-3.7,2.8-9.3,2.6-9.3,2.6L400.9,179.7z"/>
				</g>
			</g>
			<path class="st4" d="M402.8,221.7c0,0-0.3,1.6-0.3,1.9c-0.1,3,1.7,5.1,4.5,6.3c3.9,1.7,10.4,3.7,18.8,6
				c9.6,2.6,14.4,0.9,16.2-0.8c1.8-1.7,2.5-5.8,1.4-10.3c-3.3-13.6-4-15.9-5.6-21.2c-4.2-13.9-6.6-14.2-13.4-16.1
				c-3.8,4.2-4.2,12.4-2,19.8c3.1,10,5.2,15.4,5.2,15.4s-7.8-0.7-16.6-2.6c-3.6-0.8-2.6-6-2.6-6L402.8,221.7z"/>
			<g>
				<path class="st9" d="M408.2,212.2c0.5-2.8,0.4-3.4-0.6-5.4c-1.1-2-1.5-2.9-2-3.7c-0.5-0.7-2.6-3-3.2-3.4
					c-1.1-0.6-1.7,1.6-0.8,3.1c0.9,1.5,2.2,3.3,2.2,3.3L408.2,212.2z"/>
				<path class="st4" d="M405.9,224.8c-0.3-0.7,2.3-2.5,2.1-3.8c-0.2-1.3-0.5-1.4,0.3-2.5c0.7-1.1,0.7-2.2,0.3-2.8
					c-0.4-0.6,1-1.1,0.6-2.5c-0.3-1.1-1.9-3.8-2.7-4.9c-0.8-1.1-3.9-2.7-5.3-3.4c-1.4-0.7-1.7,0.5-1.7,1.4c0,0.9,1.1,2.1,1.1,2.1
					s-1.7-0.6-2,0c-0.4,0.7-0.3,2.2,1.3,3.4c-1.3-0.6-2-0.1-1.8,1c0.1,0.8,0.8,1.7,1.9,2.6c1.4,1.1,3,2.4,3.2,3.8l-0.4,2.5
					L405.9,224.8z"/>
				<path class="st9" d="M405.9,224.8c-0.1-0.3,0.1-0.6,0.2-0.9c0.2-0.3,0.3-0.5,0.5-0.8c0.3-0.5,0.7-0.9,0.9-1.4
					c0.1-0.2,0.2-0.5,0.2-0.7l-0.1-0.9c0-0.3,0-0.7,0.1-1c0.2-0.3,0.4-0.5,0.6-0.7c-0.1,0.3-0.2,0.6-0.3,0.8c-0.1,0.3,0,0.5,0.1,0.8
					c0.1,0.3,0.2,0.6,0.2,0.9c0.1,0.4-0.1,0.8-0.2,1.1c-0.3,0.6-0.7,1-1.1,1.5l-0.6,0.6C406.2,224.3,405.9,224.5,405.9,224.8z"/>
				<path class="st9" d="M400.6,208.4c0.8,0.3,1.6,0.6,2.3,1c0.8,0.4,1.5,0.7,2.3,1.3c0.7,0.7,1.1,1.4,1.6,2.1
					c0.5,0.7,0.9,1.5,1.2,2.2c-0.6-0.6-1.1-1.3-1.7-1.9l-0.8-1c-0.3-0.3-0.5-0.7-0.8-0.9c-0.6-0.5-1.4-0.9-2.1-1.3
					C402,209.4,401.2,208.9,400.6,208.4z"/>
				<path class="st9" d="M406.7,218.3c-0.5-0.6-0.9-1.3-1.3-2c-0.4-0.6-1-1.1-1.6-1.6c-1.3-0.9-2.6-1.9-3.8-2.9
					c1.5,0.6,2.9,1.5,4.2,2.4c0.6,0.5,1.3,1.1,1.7,1.8C406.2,216.8,406.4,217.5,406.7,218.3z"/>
			</g>
			<path class="st9" d="M427.7,222.7c3.7,0,7.1,0.5,9.8,3.3c-2.1-4.5-6.5-4.5-10.3-4.7L427.7,222.7z"/>
			<path class="st5" d="M423.9,187.2c6.1,1.5,7.3,2,9,4c1.7,2.1,2.7,4,4.8,10.8c-1.6,4.3-15.2,7.2-15.2,7.2s-1.4-3.9-1.9-7.6
				C420.1,197.9,420.1,191.2,423.9,187.2z"/>
		</g>
	</g>
</g>
<g id="Character_2">
	<g id="Character_00000003787978881839633510000000403884673345709210_">
		<g id="Bottom_1_">
			<g>
				<path class="st11" d="M207.5,410.9c0.6-8.9,0.9-13.1,1.8-29v0c0.1-4.1,0.2-8.4,0.5-12.3c0.9-13.1,2.6-16.2,3.7-20.6
					c1.1-4.5,1-16.6,2.7-44.7c0.9-15.6,3.2-24.2,5.2-31.7h40.2c4.1,17.6,5.3,55.7,5.2,73.9c-0.1,9.2-0.2,57,0.1,60.8
					c0.2,4,2.3,6.6,3.9,8.3c3.3,3.6,5.7,5,9.8,8.1c-0.6,1.6-9.3,1.5-11.8,0.3c-3.9-1.9-9-5.1-10.4-6.1c-3.4-2.5-4.2-4.1-4.3-7.9
					c0-0.5,0-1.2,0-1.3c-0.1-2.2-6.5-35.7-7.9-43.3c-1.1-5.9,0.1-17.2,0.1-17.2l-4.3-28c0,0-3.8,22.3-6.3,33.6
					c-1.9,8.3-6.6,21.4-9.6,34.7l0,0c-3.6,13.5-3.9,14.7-6,24.4c-1.1,4.9-3.7,21.3-4.8,24.7c-3.8,10.9-12.5,5.5-12.9-0.5
					C202,433.1,207.3,412.8,207.5,410.9z"/>
				<path id="XMLID_00000166649918058424130350000009590670636176308374_" class="st12" d="M242,320.2l3.1-20.2c0,0,12-1.4,16.4-5.6
					c0,0-5.5,7.8-13.7,9.1l-3.4,16.7l1.8,27.8L242,320.2z"/>
			</g>
			<g>
				<path class="st3" d="M289.7,428.2c0.2,0,0.6,2.5-0.6,3.5c-1.4,1.2-5.5,3.3-11,2.6c-5.5-0.7-8.5-2.3-10.7-4.1
					c-2.2-1.8-5.3-4.4-7.8-4.9c-2.3-0.5-6.1-1.7-6.8-2.4c-0.7-0.7-0.7-3.9-0.7-3.9L289.7,428.2z"/>
				<path id="XMLID_00000048499220928022692860000004220086080580915848_" class="st1" d="M254,407.9c0,0-0.7,0.4-0.9,1.1
					c-0.2,0.9-0.2,2-0.5,3.4c-0.5,2-0.8,6.1-0.5,7.7c0.3,1.6,5.3,2.9,7.7,3.8c2.5,0.9,5.3,2.8,7.8,4.8c2.6,2.1,8,4.2,11.6,4.2
					c5.5,0,9-1.5,10-3.5c1.3-2.4,0.3-3.8-6-6.7c-1.2-0.5-5.4-3-6.8-3.8c-1.5-0.9-3-2-4.3-3.1c-0.7-0.6-1.3-1.2-1.9-1.9
					c-0.5-0.6-1.3-1.3-1.6-2c-0.1-0.2-0.1-0.4-0.2-0.5c-0.2-0.5-0.3-0.9-0.4-1.5c-0.1-0.5-0.2-1.3-0.7-1.6c-0.6-0.4-1.6-0.3-2.2-0.2
					c-0.8,0.1-1.6,0.2-2.4,0.4c-0.9,0.2-3.2,0.1-3.8,0.9c-0.4,0.7-0.5,1.5-0.5,2.3c0,0.4,0,0.7,0,1.1c0,0.2,0.1,0.4-0.1,0.4
					c-0.2-0.1-0.4-0.6-0.5-0.8c-0.2-0.4-0.3-0.8-0.5-1.2c-0.2-0.5-0.4-1-0.8-1.3c-1.1-0.9-2.1-0.7-2.4-1
					C254.2,408.9,254.1,408.2,254,407.9z"/>
				<path class="st13" d="M284.4,423.3c-7.9,0.6-10.3,5.5-10.6,8.6c2,0.7,4,1.1,5.6,1.1c5.5,0,9.2-1.5,10.3-3.5
					C290.9,427.2,290,425.4,284.4,423.3z"/>
				<g>
					<g>
						<path class="st14" d="M272.6,423.5c-0.1,0-0.2,0-0.2-0.1c-0.2-0.1-0.2-0.4-0.1-0.5c1.1-1.4,4.2-3.2,7.1-2.9
							c0.2,0,0.4,0.2,0.3,0.4c0,0.2-0.2,0.4-0.4,0.3c-2.7-0.3-5.6,1.5-6.4,2.6C272.8,423.4,272.7,423.5,272.6,423.5z"/>
					</g>
					<g>
						<path class="st14" d="M269.1,421.5c-0.1,0-0.2,0-0.2-0.1c-0.2-0.1-0.2-0.4-0.1-0.5c1.1-1.4,4.2-3.2,7.1-2.9
							c0.2,0,0.4,0.2,0.3,0.4c0,0.2-0.2,0.4-0.4,0.3c-2.7-0.3-5.6,1.5-6.4,2.6C269.4,421.5,269.2,421.5,269.1,421.5z"/>
					</g>
					<g>
						<path class="st14" d="M266,419.3c-0.1,0-0.2,0-0.2-0.1c-0.2-0.1-0.2-0.4-0.1-0.5c1.1-1.4,4.2-3.2,7.1-2.9
							c0.2,0,0.4,0.2,0.3,0.4c0,0.2-0.2,0.4-0.4,0.3c-2.7-0.3-5.6,1.5-6.4,2.6C266.2,419.3,266.1,419.3,266,419.3z"/>
					</g>
					<g>
						<path class="st14" d="M262.8,417.1c-0.1,0-0.2,0-0.2-0.1c-0.2-0.1-0.2-0.4-0.1-0.5c1.5-1.9,4.9-3.2,7.8-2.9
							c0.2,0,0.4,0.2,0.3,0.4c0,0.2-0.2,0.4-0.4,0.3c-2.6-0.3-5.8,0.9-7.1,2.6C263.1,417,263,417.1,262.8,417.1z"/>
					</g>
				</g>
			</g>
			<g>
				<path class="st3" d="M216.4,438.9c-0.6,3.7-1.5,6.1-3,8.1c-1.6,2-4.1,2.4-6.5,1.5c-2.4-0.9-5.5-3-5.8-6.2
					c-0.4-3.3-0.5-5.5,0.4-8.9L216.4,438.9z"/>
				<path id="XMLID_00000031899156773481202990000003310105036055846569_" class="st1" d="M207.5,410.9c-1,0-1.3,4.9-2.5,9.8
					c-1.2,5.3-2.2,7.3-3.3,11.6c-1.2,4.9-0.6,7.2,0.8,10.5c1.4,3.2,7.3,6.9,10.8,2.9c2.9-3.2,3.4-7.1,3.7-12.2
					c0.3-5.2,1.2-8.6,2.1-12.4c0.9-4,1.8-7.6,1-8.1c-0.1,0.5-0.7,3.4-1.1,4c-0.1,0.3-0.6,0.9-0.7-0.1c0-0.3,0.2-1,0.2-1.3
					c0-0.9-0.5-1.1-0.8-1.3c-0.7-0.5-2.3-1.2-4.3-1.5c-2-0.2-3.8-0.5-4.9,0c-0.7,0.3-0.8,0.9-0.9,1.5c-0.2,0.7-0.2,1.2-0.4,1
					C206.9,414.9,207.5,411.5,207.5,410.9z"/>
				<path class="st13" d="M201.1,435.2c-0.5,3.1,0,5.3,1.1,7.8c1.4,3.2,7.8,6.9,11.3,2.9c1.8-2,2.4-4.5,2.9-7
					C215,435.3,204.3,432.7,201.1,435.2z"/>
				<g>
					<g>
						<path class="st14" d="M214.8,433.2c0,0-0.1,0-0.1,0c0,0-4.6-2.5-9.4-2c-0.2,0-0.4-0.1-0.4-0.3c0-0.2,0.1-0.4,0.3-0.4
							c5-0.6,9.7,2,9.9,2.1c0.2,0.1,0.2,0.4,0.1,0.5C215.1,433.2,214.9,433.2,214.8,433.2z"/>
					</g>
					<g>
						<path class="st14" d="M205.9,427.5c-0.1,0-0.3-0.1-0.3-0.3c0-0.2,0.1-0.4,0.3-0.5c4.8-1.1,9.7,1.9,9.9,2
							c0.2,0.1,0.2,0.4,0.1,0.5c-0.1,0.2-0.4,0.2-0.5,0.1c0,0-4.8-2.9-9.3-1.9C206.1,427.5,206,427.5,205.9,427.5z"/>
					</g>
					<g>
						<path class="st14" d="M206.5,424c-0.1,0-0.3-0.1-0.3-0.3c0-0.2,0.1-0.4,0.3-0.5c5.3-1.3,9.9,1.9,10.1,2
							c0.2,0.1,0.2,0.4,0.1,0.5c-0.1,0.2-0.4,0.2-0.5,0.1c0,0-4.5-3-9.4-1.8C206.6,424,206.5,424,206.5,424z"/>
					</g>
					<g>
						<path class="st15" d="M207.1,420.6c-0.1,0-0.3-0.1-0.3-0.3c-0.1-0.2,0.1-0.4,0.3-0.5c5-1.3,9.9,2,10.1,2.1
							c0.2,0.1,0.2,0.4,0.1,0.5c-0.1,0.2-0.4,0.2-0.5,0.1c0,0-4.9-3.1-9.5-2C207.2,420.6,207.2,420.6,207.1,420.6z"/>
					</g>
				</g>
			</g>
			<path class="st5" d="M217.7,272.6c-1,10.7-1.5,13.7-3.2,38.1c-1.6,23.7-0.7,30.9-0.9,33.8c-0.5,6.6-3.4,8.8-4.3,24.3
				c-0.8,14.2-1.2,31.6-1.2,31.6s1.9,2.6,7.3,3.1c5,0.4,7.5-1.4,7.5-1.4s9.2-33,11.8-41.3c3.5-11.3,7.3-34.8,7.3-34.8l3.3,22.7
				c0,0-1,10.9,1.1,21.1c2.6,12.7,5.3,26.5,5.3,26.5s3.3,1.4,7.5,0.9c5.8-0.6,7.8-1.9,7.8-1.9s1.6-38.4,1.6-52.4
				c0-14-0.5-48.5-1.7-70.3L217.7,272.6z"/>
			<path class="st1" d="M242,325.9l4-24.5c0,0,8.1-2.1,13.3-7.6c-0.4,4.1-7.6,9.3-11,10.1l-4.5,21.7l1.4,23L242,325.9z"/>
			<path class="st1" d="M232.6,276.4c-1.3,2-2.2,4.2-3,6.4c-0.8,2.2-1.5,4.5-2,6.8c-0.5,2.3-1,4.6-1.3,7c-0.3,2.3-0.5,4.7-0.5,7.1
				c0.6-2.3,1.1-4.6,1.6-6.9c0.5-2.3,1-4.6,1.6-6.9c0.5-2.3,1.1-4.6,1.7-6.8C231.2,280.9,231.9,278.7,232.6,276.4z"/>
			<path class="st1" d="M229.5,277.3c-1.2,1.1-2.2,2.3-3.2,3.6c-1,1.3-1.8,2.6-2.6,4.1c-0.8,1.4-1.4,2.9-2,4.4
				c-0.5,1.5-1,3.1-1.1,4.7l2.2-4.2c0.7-1.4,1.5-2.8,2.2-4.2c0.7-1.4,1.5-2.7,2.3-4.1C228,280.1,228.8,278.7,229.5,277.3z"/>
			<path class="st1" d="M234.6,305.6c-1,7.4-1.9,14.7-2.9,22.1c-1,7.4-1.7,19.2-3,26.5c-1.4,7.3-9.9,35.7-11.1,43.1
				c1.7-7.2,11.1-35.5,12.5-42.8c1.3-7.3,2-19.2,2.7-26.6C233.6,320.4,234.2,313,234.6,305.6z"/>
			<path class="st1" d="M261,305.6l1.2,19.3c0.2,3.2,0.4,6.4,0.5,9.7c0.1,3.2,0.3,6.5,0.3,9.6c-0.1,3.2-0.3,34.1,0.2,40.6
				c0.8-7.2,1.1-34,1.3-40.5c0-6.5-0.6-13-1.2-19.4C262.8,318.5,262,312,261,305.6z"/>
			<path class="st1" d="M251,393.1l1.1,6.7c0,0,2.7,1.7,8.3,1.1c5.7-0.6,6.5-2.4,6.5-2.4v-6.3c0,0-1.4,1.3-6.5,1.9
				C255.2,394.7,251,393.1,251,393.1z"/>
			<path class="st1" d="M208.2,395.7l-0.5,6.8c0,0,2.2,2.3,7.9,3.1c5.6,0.8,6.9-0.8,6.9-0.8l1.5-6.2c0,0-1.6,1-6.8,0.3
				C211.9,398.3,208.2,395.7,208.2,395.7z"/>
		</g>
		<g id="Top_00000145738249028615950930000015318433927929197967_">
			<g id="Chest_00000080205299465651626360000000184293024554021767_">
				<g>
					<path class="st11" d="M257.2,219.3c5.2,0.6,10.7,3.9,20.3,9.1c7.7,4.3,10.2,5.6,10.2,5.6s8.6-16.3,11.7-21.6
						c4.6-7.7,8.2,1.2,7,4.3c-2.2,5.9-2.9,12.8-6.6,25.7c-1.9,6.6-3.2,9.5-11.6,6.8c-6.8-2.2-24.1-8.6-24.1-8.6L257.2,219.3z"/>
					<path class="st10" d="M309.9,201.7c0.5-3.2-2-6.8-2-6.8l0,4.8L309.9,201.7z"/>
					<path class="st3" d="M256.9,218.6c5.4,0.7,7.9,1.6,11.5,3.8c3.5,2.2,16.6,9.6,16.6,9.6s1,3,0.4,8.1c-0.6,5.2-4.1,7.2-4.1,7.2
						l-18.9-6.3L256.9,218.6z"/>
				</g>
				<g id="Chest_00000008866867892015273220000005545055571292439424_">
					<path id="XMLID_00000147916160736064733060000017874815721761172356_" class="st1" d="M217.7,223.3c0,0-4.1,8.4-1.5,23.7
						c1.2,7,2,12.4,1.5,21.7c-0.4,7.9-2,22.2-2,22.2c8.1,6.9,43.7,7.2,51.9-3.1c0,0-0.5-17-0.5-30.4c0-10-0.6-18.4-1.7-23.1
						c-2.6-10.7-6.4-14.1-8.5-15.7c-5.8-0.4-8.9-0.5-17.5,0.3c-6.7,0.6-14.4,2.4-19.1,3.4C218.3,222.8,217.7,223.3,217.7,223.3z"/>
				</g>
				<g>
					<path class="st11" d="M217.7,223.3c-7,2.4-8.3,5.6-13.3,14.2c-5,8.6-10.1,20.3-12,25.8c-1.9,5.6,1.1,11.5,3.7,12.6
						c2.1,0.8,3.8,1.7,6.3-0.3c1.5-1.1,4-3.7,5.5-6.1c5-7.8,12.7-21.3,12.7-21.3S226,230,217.7,223.3z"/>
					<path class="st10" d="M204,269.1c1.3-6.6,0.2-9-0.4-13.1c-0.5-4.1-1.2-10.5-1.6-14.3c-1.9,3.6-3.7,7.3-5.3,10.9L204,269.1z"/>
					<path class="st3" d="M197.3,250.3c0.4,2.1,5.5,12.7,13.9,14.5l10.5-17c0,0,4.1-10.8-1.4-25.4c-6.3,1.2-9,2.5-12.8,8.7
						C203.6,237.2,197.3,250.3,197.3,250.3z"/>
				</g>
				<g>
					<path class="st11" d="M192,245.4c0,1.3,0.2,2.1,0,6.3c-0.2,4.2-0.4,4.8-0.7,9.2c-0.3,4.9-1.2,8,1.9,12.9
						c3.2,5.1,6.8,3.9,9.9,1.1c1.6-4.8,1.1-12.6-0.8-18.2c-1.9-5.6-2.3-10.3-2.3-10.3L192,245.4z"/>
					<path class="st10" d="M187.8,233.8c-0.3-0.4-1.4-0.5-1.8-0.2c-0.5,0.4,0.2,1.6,1,3.2c0.6,1.1,1.8,5,3,6.6
						c1.2,1.6,1.9,2.9,2.1,5C193.4,243.1,191.3,237.3,187.8,233.8z"/>
				</g>
			</g>
			<g id="Head_00000132087956204074084810000001101935304469740982_">
				<g>
					<g id="XMLID_00000039852909677369183900000006600745760427216547_">
						<g id="XMLID_00000052817955979319288590000002897220311606121117_">
							<path class="st3" d="M230.7,212.6c-3.4-4.9-6.5-8-9.1-13.5c-1-2.2-2.7-7.4-1.7-10.5c0.7-2.2,1.9-4,4.1-4.2
								c-0.8-2.9,0.4-4.8,1.5-6.2s3.1-2,4.8-1.5c0.1-1.5,1-3,2.4-3.6c1.4-0.6,3.1-0.3,4.3,0.6c0.9-2.2,3-2.6,4-2.6
								c1.8,0,3.6,1.1,4.3,2.7c3.2-2.9,8.5-1,8.7,4.5c0.7-0.6,1.8-0.8,2.7-0.4c0.9,0.4,1.4,1.4,1.4,2.3c0,0.6-0.3,1.3-0.2,1.9
								c0.1,0.5,0.6,1,1.1,1.1c0.5,0.1,1.1-0.1,1.5-0.6c0.3,1,0.1,2.1-0.5,2.9c-0.6,0.8-1.7,1.2-2.7,1.1c0.3,0.8,0,1.8-0.7,2.4
								c-0.5,0.4-1.3,0.6-1.9,0.5C254.8,189.8,230.9,212.5,230.7,212.6z"/>
							<path class="st11" d="M256,205.1c-0.5,4.2-2.1,6.3-4.8,7.6c-1.9,0.9-4.5,1.2-4.5,1.2l0.4,4.5c9.2,9-10.7,10.2-15.4,2.1
								l-1.6-13.6c0,0-1.5,2.3-4.7,0.7c-2.2-1.1-4.1-4.3-3-7.7c1.1-3.3,4-3.5,5.6-2.2c1.8,1.4,1.8,2.9,2.6,2.8
								c1.2-0.2,1.7-0.9,1.9-1.7c0.4-1.4,0.3-2.8,0-5.7c1.1-0.7,2.2-1.9,2.6-2.9c1-2.4,0-4.7-0.9-6.2c3.2-1.6,7,1.5,10.6,1.6
								c4.1,0.1,4.1-3.4,6.4-3.4c2,1.4,3.2,5.1,3.4,7.5C254.9,194.4,256.9,196.7,256,205.1z"/>
							<path class="st10" d="M246.7,213.8c-4.9,0.3-10-0.7-12-2.3c-2-1.6-3.2-5.2-3.2-5.2s0.8,4.6,2.4,6.5c1.6,1.9,5.1,2.4,7.2,2.6
								c2.1,0.3,5.7,0.2,5.7,0.2L246.7,213.8z"/>
						</g>
					</g>
				</g>
				<g>
					<path id="XMLID_00000052822832761399867200000015242936131071041190_" class="st3" d="M252.6,191.1l-3.3-1
						c0.3-0.9,1.2-1.5,2.1-1.2C252.4,189.2,252.9,190.1,252.6,191.1z"/>
					<path id="XMLID_00000011731376711300557870000001367417429079575440_" class="st3" d="M237.5,193.1l2.8-2.2
						c-0.6-0.8-1.7-1-2.4-0.4C237,191.1,236.9,192.3,237.5,193.1z"/>
					<path id="XMLID_00000145775724716074296070000002089048649572729512_" class="st3" d="M249.6,194.2c0.1,0.8,0.8,1.4,1.6,1.3
						c0.8-0.1,1.4-0.7,1.3-1.5c-0.1-0.8-0.8-1.4-1.6-1.3C250.2,192.7,249.6,193.4,249.6,194.2z"/>
					<path id="XMLID_00000118362172248950039830000009542816045825894072_" class="st3" d="M238.8,195.5c0.1,0.8,0.8,1.4,1.6,1.3
						c0.8-0.1,1.4-0.7,1.3-1.5c-0.1-0.8-0.8-1.4-1.6-1.3C239.3,194.1,238.7,194.8,238.8,195.5z"/>
					<path class="st10" d="M251,200l-4.6,2l-1.8-9.1C246.2,192.5,249.1,196.9,251,200z"/>
					<path class="st4" d="M245.8,204.9c-0.4-0.7-1.3-1.1-2-1.3c-0.4-0.1-0.9-0.1-1.3-0.1c-0.5,0-0.9,0.1-1.3,0.3
						c-0.2,0.1,0,0.5,0.2,0.4c0.8-0.1,1.6-0.2,2.4,0c0.4,0.1,0.8,0.2,1.1,0.4c0.3,0.1,0.6,0.3,0.9,0.5
						C245.8,205.2,245.8,205,245.8,204.9z"/>
				</g>
			</g>
		</g>
		<g>
			<g>
				<path class="st0" d="M307.9,193.7c0-35.3-28.6-64-64-64c-35.3,0-64,28.6-64,64c0,1.6,0,7.8,0,9.4c0,35.3,28.6,64,64,64
					c35.3,0,64-28.7,64-64C307.9,201.5,307.9,195.3,307.9,193.7z M243.9,233c-20.1,0-36.7-15.1-39-34.7c2.3-19.5,18.9-34.7,39-34.7
					c20.2,0,36.8,15.1,39.1,34.7C280.7,217.9,264.1,233,243.9,233z"/>
				<path class="st8" d="M307.9,193.7c0-35.3-28.6-64-64-64c-35.3,0-64,28.6-64,64c0,1.6,0,7.8,0,9.4c0,35.3,28.6,64,64,64
					c35.3,0,64-28.7,64-64C307.9,201.5,307.9,195.3,307.9,193.7z M243.9,233c-20.1,0-36.7-15.1-39-34.7c2.3-19.5,18.9-34.7,39-34.7
					c20.2,0,36.8,15.1,39.1,34.7C280.7,217.9,264.1,233,243.9,233z"/>
			</g>
			<g>
				<path class="st0" d="M243.9,139.1c-35.3,0-64,28.6-64,64c0,35.3,28.6,64,64,64c35.3,0,64-28.7,64-64
					C307.9,167.7,279.3,139.1,243.9,139.1z M243.9,242.4c-21.7,0-39.3-17.6-39.3-39.3c0-21.8,17.6-39.4,39.3-39.4
					c21.7,0,39.4,17.6,39.4,39.4C283.3,224.8,265.7,242.4,243.9,242.4z"/>
				<path class="st7" d="M243.9,139.1c-35.3,0-64,28.6-64,64c0,35.3,28.6,64,64,64c35.3,0,64-28.7,64-64
					C307.9,167.7,279.3,139.1,243.9,139.1z M243.9,242.4c-21.7,0-39.3-17.6-39.3-39.3c0-21.8,17.6-39.4,39.3-39.4
					c21.7,0,39.4,17.6,39.4,39.4C283.3,224.8,265.7,242.4,243.9,242.4z"/>
			</g>
			<path class="st0" d="M243.9,233c-20.1,0-36.7-15.1-39-34.6c-0.2,1.5-0.3,3.1-0.3,4.6c0,21.7,17.6,39.3,39.3,39.3
				c21.7,0,39.3-17.6,39.3-39.3c0-1.6-0.1-3.1-0.3-4.6C280.6,217.9,264.1,233,243.9,233z"/>
			<path class="st6" d="M243.9,233c-20.1,0-36.7-15.1-39-34.6c-0.2,1.5-0.3,3.1-0.3,4.6c0,21.7,17.6,39.3,39.3,39.3
				c21.7,0,39.3-17.6,39.3-39.3c0-1.6-0.1-3.1-0.3-4.6C280.6,217.9,264.1,233,243.9,233z"/>
		</g>
		<g id="Hand_00000086649481406466470710000003030139853746503079_">
			<path class="st11" d="M310.6,203.7c0.9-1.8,0.8-2,0-2.7c-0.8-0.7-2.4-1.9-4.5-1.5c-1.4,0.2-2.9,0.4-3.6,0.9
				c-0.7,0.5,0.2,1.9,2.1,2.1c3,0.2,3.1,1,3.1,1s-2.8-0.2-3.9-0.1c-1.1,0.1-3,0.9-4.2,1.3c-1.2,0.4-1.2,2,1,2.3c0,0-1.5,0.5-2.2,0.7
				c-1.6,0.5-2,1.4-0.6,2.2c0.3,0.2,0.8,0.4,1.5,0.3c0,0-1.7,0.2-1.6,0.8c0.1,1.6,1.2,1.9,4.8,2.4c3,0.4,4.1,1.5,4,2.7l-0.2,0.8
				c0,0,1.2-1,2.3-1.9c0.8-0.7,1.4-1.5,0.8-2.8c0,0,1.9-0.2,1.8-1.4c-0.1-1.2-0.8-2.4-0.8-2.4s1-0.7,0.8-2.1c-0.3-1.4-1-1.9-1-1.9
				L310.6,203.7z"/>
			<path class="st10" d="M300.7,206.9c0.7-0.2,1.3-0.4,2-0.5c0.8,0,1.4,0.2,2.1,0.3c1.3,0.4,2.6,0.8,3.9,1.4c-1.4-0.1-2.7-0.5-4-0.8
				c-0.7-0.2-1.3-0.4-1.9-0.5C302.1,206.8,301.4,206.9,300.7,206.9z"/>
			<path class="st10" d="M299.4,210.1c0.7-0.3,1.5-0.4,2.2-0.4c0.8,0,1.5,0.2,2.2,0.4c1.4,0.4,2.8,0.9,4.2,1.5
				c-1.5-0.2-2.9-0.6-4.3-0.9C302.3,210.3,300.9,209.9,299.4,210.1z"/>
		</g>
		<g id="Hand_00000168801580378583137740000004482712037302662530_">
			<path class="st11" d="M189.3,241.8c-1.8-0.9-1.8-1.1-1.6-2.2c0.2-1,0.8-2.9,2.7-3.9c1.3-0.6,2.6-1.3,3.4-1.4c0.8,0,1,1.7-0.5,2.9
				c-2.3,2-1.7,2.5-1.7,2.5s2-1.6,2.9-2.2c0.9-0.6,3-1,4.2-1.4c1.2-0.4,2.2,0.9,0.6,2.4c0,0,1.5-0.5,2.2-0.7c1.5-0.5,2.4,0,1.8,1.4
				c-0.2,0.3-0.4,0.8-1,1.2c0,0,1.5-0.8,1.8-0.3c0.9,1.4,0.1,2.3-2.5,4.8c-2.2,2.1-2.5,3.6-1.7,4.5l0.6,0.6c0,0-1.5-0.1-3-0.3
				c-1-0.1-2-0.4-2.3-1.8c0,0-1.5,0.4-2.6-0.6c-0.6-0.6-0.4-1.9-0.4-1.9s-1.3-0.1-1.9-1.3c-0.6-1.3-0.3-2-0.3-2L189.3,241.8z"/>
			<path class="st10" d="M199.2,238.5c-0.7,0.2-1.3,0.4-1.9,0.8c-0.6,0.4-1.1,1-1.5,1.5c-0.8,1.1-1.7,2.2-2.3,3.4c1-0.9,1.9-2,2.8-3
				c0.4-0.5,0.8-1.1,1.3-1.5C198,239.3,198.6,238.9,199.2,238.5z"/>
			<path class="st10" d="M202.1,240.4c-0.7,0.1-1.4,0.5-2,1c-0.6,0.5-1.1,1-1.6,1.6c-0.9,1.1-1.8,2.4-2.5,3.7c1.1-1,2-2.2,3-3.3
				C199.9,242.2,200.8,241.1,202.1,240.4z"/>
		</g>
	</g>
</g>
<g id="Speech_Bubble">
	<g id="Speech_Bubble_00000041280794833711163740000005300220468699185825_">
		<g id="Speech_Bubble_7_">
			<path class="st13" d="M272.6,119.9l-0.3-9.5c0,0,19.1-2.5,17-22.3c-1.3-12.4-7.9-21.9-46.8-20.8c-42.9,1.2-39,26.9-34.2,34.2
				c7.1,11,24.4,12.2,55.1,10.5l7.7,8.5C271.6,121,272.6,120.7,272.6,119.9z"/>
			<path class="st0" d="M271.7,121.9l-8.5-9.4c-30.9,1.7-48.1,0.3-55.3-10.8c-2.6-4.1-3.9-12.7,0.2-20.6
				c3.3-6.2,11.9-13.8,34.4-14.4c37.4-1,45.9,7.7,47.3,21.3c1.9,18.3-14,22.2-17,22.8l0.3,10.5C273.2,122.1,272.2,122.5,271.7,121.9
				z M263.6,111.4l8.4,9.3l-0.3-10.8l0.5-0.1c0.8-0.1,18.5-2.7,16.6-21.7c-1.1-10.9-5.6-21.5-46.2-20.3c-17.4,0.5-29,5.3-33.5,13.9
				c-3.9,7.5-2.8,15.6-0.3,19.5c6.9,10.6,23.9,12,54.6,10.3L263.6,111.4z"/>
		</g>
	</g>
	<text transform="matrix(1 0 0 1 212.105 94.4159)" class="st16 st17 st18">PERDON!</text>
	<rect x="284.7" y="91.5" class="st19" width="3.7" height="0"/>
</g>
<g id="Character_1">
	<g id="Character_00000076603369263015456010000005331749738977898675_">
		<g id="Bottom_00000066504957563341037030000009174882321217476510_">
			<g>
				<path class="st20" d="M101.5,362.2l-1.6-14.1l16.1-1.4c0,0-0.7,10.9-0.6,15.9c0,2.4,1.7,6.8,1.7,6.8s-6.7,3.5-10.2,2.1
					c-3.5-1.4-5.8-6.9-5.7-7.9C101.2,362.4,101.5,362.2,101.5,362.2z"/>
				<path class="st3" d="M135.7,384.4c0.2,0,0.4,2-0.8,3.1c-1.4,1.2-5.9,3.4-11.3,2.6c-5.4-0.8-8.3-2.5-10.4-4.3
					c-2.1-1.8-5.1-4.4-7.5-4.9c-2.3-0.5-5.3-2.4-6-3.1c-0.7-0.7-0.6-3.8-0.6-3.8L135.7,384.4z"/>
				<path id="XMLID_00000173868623211737462280000001832976140715730324_" class="st5" d="M101.5,362.2c0,0-0.7,0-0.8,0.7
					c-0.2,0.8-0.4,3.3-0.8,4.7c-0.5,1.9-0.9,5.9-0.7,7.4s4.5,3.5,6.9,4.5c2.4,0.9,5.1,2.9,7.6,4.9c2.5,2.1,7.8,4.3,11.3,4.4
					c4.2,0,8.9-1.2,10-3.1c1.4-2.3,2.4-5-3.7-8c-1.2-0.6-5.2-3-6.6-3.9c-3.7-2.4-6.4-4.6-8-8.8c-0.2-0.5-0.4-1-0.9-1.3
					c-0.4-0.2-0.8-0.2-1.2-0.1c-1,0.1-5.1,0.6-6.1,1c-0.8,0.4-2,0.8-2,1.8c0,0.4,0.1,0.7,0.2,1.1c0.1,0.2,0.1,0.5-0.1,0.6
					c-0.2,0.1-0.4,0-0.6-0.2c-0.6-0.6-1.1-1.3-1.6-2c-0.3-0.4-1.2-1.5-1.6-1.8c-0.3-0.3-0.8-0.4-1-0.7
					C101.4,363.1,101.5,362.7,101.5,362.2z"/>
				<path class="st1" d="M113.6,384.4c-1.1-0.9-2.2-1.8-3.3-2.5l0,0c0,0,7.2,4.5,10.1,2.5c1.9-1.2,1-2.8,1-3.3c0-0.5,6.7-3.9,8.5-4
					v0c0.5,0.3,0.9,0.5,1.2,0.6c4.8,2,5.4,4.4,4.5,7.5c-1.1,1.9-5.3,3.8-10.7,3.7C121.5,388.8,116.1,386.5,113.6,384.4z"/>
				<path class="st1" d="M121,379.6c3.8,1.6,2.2,2.3,1.1,2.4c-1.1,0.1-7.5-3.7-11.3-6.8c-4-3.3-7.2-7.6-8.7-8.8
					c-0.6-0.4-1.2-1-1.7-1.5c0.1-0.8,0.2-1.6,0.3-2c0.2-0.7,0.8-0.7,0.8-0.7c0,0.5-0.1,0.9,0.3,1.3c0.3,0.3,0.7,0.4,1,0.7
					c0.4,0.3,1.3,1.4,1.6,1.8c0.5,0.7,1,1.4,1.6,2C109.2,372.2,117.2,378.1,121,379.6z"/>
				<g>
					<g>
						<path class="st3" d="M121.8,381.5c-0.1,0-0.2,0-0.2-0.1c-0.2-0.1-0.2-0.4,0-0.5c1.1-1.3,6.3-4.3,9.1-3.9
							c0.2,0,0.4,0.2,0.3,0.4c0,0.2-0.2,0.3-0.4,0.3c-2.6-0.3-7.6,2.7-8.4,3.7C122,381.4,121.9,381.5,121.8,381.5z"/>
					</g>
					<g>
						<path class="st3" d="M118.5,379.4c-0.1,0-0.2,0-0.2-0.1c-0.2-0.1-0.2-0.4,0-0.5c1.1-1.3,6.3-4.3,9.1-3.9
							c0.2,0,0.4,0.2,0.3,0.4c0,0.2-0.2,0.3-0.4,0.3c-2.6-0.3-7.6,2.7-8.4,3.7C118.7,379.3,118.6,379.4,118.5,379.4z"/>
					</g>
					<g>
						<path class="st3" d="M115.2,377.4c-0.1,0-0.2,0-0.2-0.1c-0.2-0.1-0.2-0.4,0-0.5c1.1-1.3,6.3-4.3,9.1-3.9
							c0.2,0,0.4,0.2,0.3,0.4c0,0.2-0.2,0.3-0.4,0.3c-2.6-0.3-7.6,2.7-8.4,3.7C115.4,377.4,115.3,377.4,115.2,377.4z"/>
					</g>
					<g>
						<path class="st3" d="M112.1,375.1c-0.1,0-0.2,0-0.2-0.1c-0.2-0.1-0.2-0.4,0-0.5c1.1-1.3,6.3-4.3,9.1-3.9
							c0.2,0,0.4,0.2,0.3,0.4c0,0.2-0.2,0.3-0.4,0.3c-2.6-0.3-7.6,2.7-8.4,3.7C112.3,375.1,112.2,375.2,112.1,375.1z"/>
					</g>
					<g>
						<path class="st3" d="M109.1,372.9c-0.1,0-0.2,0-0.2-0.1c-0.2-0.1-0.2-0.4-0.1-0.5c1.5-1.8,6.9-4.3,9.8-4
							c0.2,0,0.4,0.2,0.3,0.4c0,0.2-0.2,0.3-0.4,0.3c-2.5-0.3-7.7,2.1-9.1,3.7C109.3,372.9,109.2,372.9,109.1,372.9z"/>
					</g>
				</g>
			</g>
			<g>
				<path class="st20" d="M74.8,368.8l3.8-16.9L62,349.3L61.7,366c0,0-1.3,4.5-0.3,6c0.9,1.5,11,3.2,11.9,2.1
					C74.2,373.2,74.8,368.8,74.8,368.8z"/>
				<path class="st3" d="M73.2,395.5c-0.4,3.8-1.2,6.3-2.9,8.3c-1.6,2.1-4.6,2.4-7.5,1.4c-2.9-1-6.6-3.2-7.2-6.6
					c-0.7-3.4-0.4-5.7,0.4-9.1L73.2,395.5z"/>
				<path id="XMLID_00000149381482290840832750000012991864055887197114_" class="st5" d="M61.7,366c-1.2-0.1-0.9,2.9-1.5,8
					c-0.6,5.5-3.1,9.9-4,14.3c-1,5.1-0.8,7.4,1.1,10.8c1.9,3.4,9,7.3,12.8,3.3c3.1-3.3,3.4-7.3,3.4-12.5c0-5.4-0.1-9.2,0.4-13.2
					c0.4-3.8,2-7.4,1-8c-0.1,0.6-1.1,4.5-1.8,4.4c0-0.5,0-1,0.1-1.5c0.1-0.4,0-0.9-0.3-1.3c-0.3-0.4-1.5-0.8-1.9-1
					c-1.2-0.4-3.3-0.8-4.5-1c-0.6-0.1-1.2-0.2-1.8-0.3c-0.5-0.1-1.1-0.1-1.5,0c-0.3,0.1-0.6,0.2-0.7,0.4c-0.1,0.2-0.1,0.4-0.1,0.6
					c0,0.4-0.1,0.7-0.2,1c-0.1,0.1-0.2,0.3-0.4,0.3c-0.1,0-0.2-0.2-0.2-0.3C61.6,369.5,61.6,366.3,61.7,366z"/>
				<path class="st1" d="M56.6,386.9c-0.2,0.7-1.1,5.6,0.4,6.7c1.6,1.2,2.7-2.6,2.7-2.6s3.9-0.6,9.4,2.3c-0.3,0.8,0.4,3.5,2,3.1
					c1.6-0.4,2.4-6,2.4-6c0,5-0.4,8.9-3.4,12.1c-3.8,4-10.9,0.1-12.8-3.3c-1.9-3.4-2.1-5.7-1.1-10.8
					C56.3,387.9,56.4,387.4,56.6,386.9z"/>
				<path class="st1" d="M60.1,391.4c-0.1,1.9-2.2,1-2.1-1.7c0-2.7,1.4-9.1,2-13.4c0.4-6.2,0.6-10.4,1.8-10.3c0,0.1,0,0.1,0,0.2
					c0,0-0.1,3.6-0.1,4c-0.2,3.8-0.3,11.2-0.8,14.6C60.2,388.2,60.2,389.5,60.1,391.4z"/>
				<path class="st1" d="M68.4,393.2c0.5-1.8,0.9-3,1.5-6.4c0.6-3.4,2.6-10.2,3.6-13.9c0.3-0.6,1.4-4,1.4-4c0.8,0.2,0,3.5-0.4,5
					c-0.4,1.5-0.9,3.2-1.4,5.4c-1.3,4.3-1.4,10.8-2.2,13.3C70.1,395,67.9,394.9,68.4,393.2z"/>
				<g>
					<g>
						<path class="st3" d="M69.1,393.5c-0.1,0-0.1,0-0.2-0.1c0,0-4.3-2.5-9.3-2c-0.2,0-0.5-0.1-0.5-0.3c-0.1-0.2,0.1-0.4,0.3-0.4
							c5.3-0.6,9.7,2,9.9,2.1c0.2,0.1,0.3,0.4,0.2,0.6C69.5,393.4,69.3,393.5,69.1,393.5z"/>
					</g>
					<g>
						<path class="st3" d="M70.4,389.5c-0.1,0-0.1,0-0.1-0.1c0,0-4.9-2.7-10.4-2.2c-0.2,0-0.5-0.1-0.5-0.4c0-0.2,0.1-0.4,0.4-0.4
							c5.8-0.5,10.7,2.2,11,2.4c0.2,0.1,0.3,0.4,0.2,0.6C70.7,389.5,70.5,389.6,70.4,389.5z"/>
					</g>
					<g>
						<path class="st3" d="M60.3,383.4c-0.2,0-0.3-0.2-0.4-0.3c-0.1-0.2,0.1-0.4,0.3-0.5c5.5-1,10.7,2.1,10.9,2.3
							c0.2,0.1,0.3,0.4,0.2,0.6c-0.1,0.2-0.4,0.2-0.6,0.1c0,0-5.1-3-10.2-2.1C60.4,383.4,60.4,383.4,60.3,383.4z"/>
					</g>
					<g>
						<path class="st3" d="M60.8,379.8c-0.2,0-0.3-0.2-0.4-0.3c-0.1-0.2,0.1-0.4,0.3-0.5c6-1.2,11,2.1,11.2,2.3
							c0.2,0.1,0.3,0.4,0.1,0.6c-0.1,0.2-0.4,0.2-0.6,0.1c0,0-4.8-3.2-10.4-2.1C60.9,379.8,60.9,379.8,60.8,379.8z"/>
					</g>
					<g>
						<path class="st3" d="M61.4,375.8c-0.2,0-0.3-0.1-0.4-0.3c-0.1-0.2,0.1-0.4,0.3-0.5c5.7-1.2,11,2.2,11.2,2.4
							c0.2,0.1,0.3,0.4,0.1,0.6c-0.1,0.2-0.4,0.2-0.6,0.1c-0.1,0-5.2-3.3-10.5-2.2C61.5,375.8,61.4,375.8,61.4,375.8z"/>
					</g>
				</g>
			</g>
			<g>
				<path id="XMLID_00000087396086452404801680000011532044511488397467_" class="st1" d="M68.1,238.2c-5.3,13-1.8,30.4-2.4,44.6
					c-0.6,17-0.9,30.3-0.9,30.3c-0.2,2.3-1.5,5.5-2.6,16.7c-1.1,11.9-1.1,28.8-1.1,28.8s10,4.3,16.3,2.1c0,0,6.7-25.4,10-39.4
					c3.1-13.2,5.3-33.9,5.3-33.9l3.6,19.9c0,0-0.5,8.6-0.2,14.6c0.2,7,4,33.7,4,33.7s9.3,5.6,15.8,0.3c0,0,3.2-39.2,3.4-47.6
					c0.4-16.5,0.9-48.8-1.1-70H68.1z"/>
				<path id="XMLID_00000008846477133159883980000011500543991449435277_" class="st3" d="M92.7,287.4l4.2-26.1c0,0,9-1.5,12.9-5.2
					c0,0-2.9,5.8-10,7.7l-4.4,24.2l1,19.4L92.7,287.4z"/>
			</g>
			<path class="st5" d="M61,359.3c2.8,2.2,11,4.1,16.6,2.1l1.1-4.7c-4.2,1.4-12.9,0.5-17.6-2.4L61,359.3z"/>
			<path class="st5" d="M100.1,356.1c1.9,1.9,10.7,3.5,15.8,0.5l0.4-4.7c-3.9,2.2-13,1.8-16.8-0.4L100.1,356.1z"/>
			<g>
				<path class="st5" d="M65.4,285.2c0,0-0.9,21.2-0.8,22.7c0.1,1.5,11.6,4.6,11.9,3.6c0.5-1.6,0.4-5.3,1.4-22.8
					C68.3,287.4,65.4,285.2,65.4,285.2z"/>
				<path class="st1" d="M76.1,294.7c-0.3-0.1-0.7-0.1-1.1-0.1c-0.4,0-0.8,0-1.3-0.1c-0.9-0.1-1.8-0.2-2.6-0.4c-1-0.2-2-0.5-2.9-0.9
					c-0.8-0.3-1.5-0.7-2.3-1c-0.1,0-0.1,0.1,0,0.1c0.7,0.5,1.6,0.9,2.4,1.2c0.8,0.3,1.6,0.6,2.4,0.8c0.9,0.2,1.8,0.4,2.6,0.5
					c0.4,0,0.9,0.1,1.3,0.1c0.4,0,1,0.1,1.4-0.1C76.1,294.9,76.1,294.7,76.1,294.7z"/>
				<path class="st1" d="M71.1,291.8c-0.1-0.2-0.2-0.4-0.4-0.4c-0.2,0-0.4,0-0.6,0.1c-0.2,0.1-0.3,0.3-0.3,0.5
					c0,0.3,0.1,0.6,0.4,0.8c0.2,0.1,0.6,0.2,0.8,0c0.2-0.1,0.2-0.3,0.2-0.5C71.2,292.1,71.1,291.9,71.1,291.8z M70.8,292.4
					c-0.1,0.2-0.4,0.2-0.6,0.1c-0.3-0.2-0.2-0.7,0.1-0.8c0.1,0,0.2,0,0.3,0.1C70.9,291.9,71,292.2,70.8,292.4z"/>
			</g>
		</g>
		<g id="Top_00000061449141949380468320000003694386730798447036_">
			<path class="st20" d="M104.1,183.1c5.8,1,8.6,2.5,12.9,9.5c4.4,7,13.2,26.9,13.2,26.9l19,14.6l-11.4,5.1
				c0.3,0.5-2.7-0.7-10.3-4.8c-6.7-3.6-7.3-3.7-11.7-11.3c-3.9-6.8-9.8-16.7-9.8-16.7L104.1,183.1z"/>
			<g>
				<path class="st1" d="M66.4,193L66.4,193c7.9,0,14.3-6.4,14.3-14.3v-35.8h-2.4c-6.6,0-12,5.4-12,12V193z"/>
				<g>
					<path class="st0" d="M73.4,147.4c-0.2,0.6-0.3,1.2-0.4,1.8c0,0.4-0.1,0.8,0,1.2c0.3,1.9,2.1,3.2,3.9,3.3c1.8,0,3.6-1.1,4.7-2.5
						c1.5-2,3.8-6.6,0.8-8.2c-2-1.1-4.5-0.8-6.3,0.5C74.9,144.4,73.9,145.8,73.4,147.4z"/>
					<path class="st21" d="M73.4,147.4c-0.2,0.6-0.3,1.2-0.4,1.8c0,0.4-0.1,0.8,0,1.2c0.3,1.9,2.1,3.2,3.9,3.3
						c1.8,0,3.6-1.1,4.7-2.5c1.5-2,3.8-6.6,0.8-8.2c-2-1.1-4.5-0.8-6.3,0.5C74.9,144.4,73.9,145.8,73.4,147.4z"/>
				</g>
			</g>
			<path class="st5" d="M72.6,224.1c-0.3,1.5-3.8,9-5.9,17.2c12.5,16.1,49.5,7.3,52.2-1.7c-0.6-10.8-1.1-38-3.4-42.9
				c-4.2-8.8-11.3-13.5-11.3-13.5c-3.4-0.7-6.9-0.9-7.9-1c-2.1-0.2-6.3-0.7-11.8,0.3c-2.6,0.5-6.6,1.5-10.7,3.2
				c-4.3,1.8-5.3,7.6-3.9,17C70.5,206.9,74.9,214,72.6,224.1z"/>
			<g id="_x34__00000111161076695841070160000005875332288916918457_">
				<polygon class="st0" points="170,194.8 158.6,184.9 167.3,139.4 150.4,124.8 137.3,129.4 131.2,161.3 118.5,150.3 164.4,76.2 
					146.3,60.6 133.2,65.2 84,143.9 80.7,161.5 124,199 119,225.3 135.9,239.9 149,235.3 151.4,222.6 152.3,223.3 165.4,218.8 				
					"/>
				<polygon class="st6" points="170,194.8 158.6,184.9 167.3,139.4 150.4,124.8 137.3,129.4 131.2,161.3 118.5,150.3 164.4,76.2 
					146.3,60.6 133.2,65.2 84,143.9 80.7,161.5 124,199 119,225.3 135.9,239.9 149,235.3 151.4,222.6 152.3,223.3 165.4,218.8 				
					"/>
				<g id="_x34__00000176038080462483497860000003713991766002905272_">
					<g>
						<polygon class="st0" points="145.5,189.5 154.2,144 137.3,129.4 128.6,175 105.4,154.9 151.3,80.8 133.2,65.2 84,143.9 
							80.7,161.5 124,199 119,225.3 135.9,239.9 140.9,213.5 152.3,223.3 156.9,199.4 						"/>
						<polygon class="st7" points="145.5,189.5 154.2,144 137.3,129.4 128.6,175 105.4,154.9 151.3,80.8 133.2,65.2 84,143.9 
							80.7,161.5 124,199 119,225.3 135.9,239.9 140.9,213.5 152.3,223.3 156.9,199.4 						"/>
					</g>
				</g>
				<polygon class="st0" points="133.2,65.2 151.3,80.8 164.4,76.2 146.3,60.6 				"/>
				<polygon class="st8" points="133.2,65.2 151.3,80.8 164.4,76.2 146.3,60.6 				"/>
				<polygon class="st0" points="137.3,129.4 150.4,124.8 167.3,139.4 154.2,144 				"/>
				<polygon class="st8" points="137.3,129.4 150.4,124.8 167.3,139.4 154.2,144 				"/>
				<polygon class="st0" points="145.5,189.5 158.6,184.9 170,194.8 156.9,199.4 				"/>
				<polygon class="st8" points="145.5,189.5 158.6,184.9 170,194.8 156.9,199.4 				"/>
				<polygon class="st0" points="105.4,154.9 118.5,150.3 131.2,161.3 128.6,175 				"/>
				<polygon class="st8" points="105.4,154.9 118.5,150.3 131.2,161.3 128.6,175 				"/>
			</g>
			<g>
				<path class="st20" d="M137.4,194.9c-1-0.3,1.3-4.1,0.8-6.6c-0.2-1.2-1.8-2.4-2.3-0.7c-1.2,3.5-2.7,4.8-3.7,6.9"/>
				<g>
					<g>
						<path class="st20" d="M132.2,194.5c-1,2.1-2.1,3.5-5,5.6c-3.1,2.2-21.1,6-21.1,6s-4.3-2.5-11.6-7.4
							c-9.2-6.2-17.9-13.5-20.8-13c-9.1,2.6-7,15.9-3.4,18.9c2.3,2,5,3.8,14.5,8.8c10.3,5.5,11.8,5.7,14.8,7
							c5.3,2.3,6.4,1.8,13.1-0.6s10.6-4.5,19.5-8.9c4.5-2.2,6.2-3.8,9.6-6.1c1.7-1.1,2.6-1.9,3.5-3c0.9-1.1,1.6-2.4,1.9-3.7
							c0.1-0.3,0.1-0.5,0.2-0.8c0.1-0.2,0.3-0.4,0.4-0.6c0.3-0.4,0.6-0.8,0.8-1.2c0.2-0.5,0.2-1,0.3-1.5c0-0.2,0-0.5,0.1-0.7
							c0.1-0.2,0.2-0.5,0.3-0.7c0.3-0.6,0.6-1.2,0.7-1.8c0.1-0.6-0.4-0.9-0.4-0.9s0.5-0.7,0.6-0.9c0.2-0.3,0.4-0.7,0.5-1.1
							c0.1-0.1,0.1-0.3,0-0.5c0-0.1-0.1-0.1-0.2-0.2c-1.3-0.7-2.6,0.1-3.6,0.9c-2.7,2.1-3.9,3.9-6.8,5.7c-1.6,1-2,1.2-2.6,1.2"/>
						<path class="st22" d="M149.5,189.9c-0.5,0.7-1,1.4-1.5,2c-0.5,0.7-1.1,1.3-1.6,2c-0.3,0.3-0.5,0.7-0.8,1
							c-0.3,0.3-0.6,0.6-0.9,0.9c-0.6,0.6-1.2,1.1-1.9,1.7l0.9-0.9c0.3-0.3,0.6-0.6,0.9-0.9c0.3-0.3,0.6-0.6,0.8-0.9
							c0.3-0.3,0.5-0.7,0.8-1c0.5-0.7,1.1-1.3,1.7-1.9L149.5,189.9z"/>
						<path class="st22" d="M149,193c-0.2,0.6-0.6,1.2-0.9,1.8c-0.4,0.5-0.7,1.1-1.1,1.6c-0.4,0.5-0.8,1-1.2,1.5
							c-0.4,0.5-0.9,1-1.4,1.4c0.4-0.5,0.8-1,1.2-1.5l1.2-1.5l1.2-1.5C148.3,194.1,148.6,193.6,149,193z"/>
					</g>
				</g>
			</g>
			<g>
				<g id="Head_00000041259930596052530550000004087576041417594019_">
					<path class="st1" d="M107.7,163.1l1.2-0.4c5.3-2.8,5-9.7,3.7-13.3c-2.9-8-11.5-11-16.8-11.3c-10.1-0.6-15.1,2.1-16.1,7.3
						c-1.4-0.1-3.3,1-4.4,2.5c-2.5,3.4-5.5,15.2,7.7,27.7L107.7,163.1z"/>
					<g id="XMLID_00000167354539174059435210000006240205408302933407_">
						<g id="XMLID_00000039830162796333418130000007861564266307790234_">
							<path id="XMLID_00000095320664042384293510000001918730369386611631_" class="st20" d="M80.4,171.8c-1.8,0.3-3.3-0.7-4.3-2
								c-2.3-2.8-2.5-5.6-1.3-7.3c1-1.5,3.4-2.3,4.9-1.3c1.7,1.2,1.7,2,2.3,3.3c0.6,1.3,3.2,1.2,4-3.7c0.7-4.6,0.5-9.4,2.9-11.4
								c3.5-3,7.1-2,8.4-0.1c1.5-2.1,4.6-2.3,6.9-0.9c1.7,1,3.4,2.5,3.2,7.7c-0.1,1.6,1,4.6,1.1,6.8c0.5,9-1,11.2-3.4,13.4
								c-1.4,1.3-3.7,2.2-7.1,2.2l0.1,4.6c0,0,4.1,6,4.2,8.9l-19.3-9.2l-0.5-12.4C82.7,170.4,82.2,171.5,80.4,171.8z"/>
						</g>
						<g>
							<g id="XMLID_00000103248032830380764680000010514194333853361287_">
								<path id="XMLID_00000075151378092642637730000013780401570928952500_" class="st3" d="M103.3,153.1l2.6,2.3
									c-0.6,0.8-1.7,0.9-2.5,0.2C102.7,155,102.6,153.9,103.3,153.1z"/>
							</g>
							<g id="XMLID_00000070835550745099874860000014783791833598755740_">
								<path id="XMLID_00000095309930185450578240000016366696786800506298_" class="st3" d="M94.2,156l-3.3,1.9
									c-0.6-0.9-0.3-2,0.6-2.6C92.4,154.9,93.6,155.2,94.2,156z"/>
							</g>
							<path class="st1" d="M89,150c-0.8,1-1.4,2-1.3,5.6c0.1,1.5-0.1,5-1.1,7.1c-0.9,1.8-1.8,2.9-3.7,3.3c-1,0.2-2.6,0.1-3.5-0.4
								c-0.7-0.3-2.6-1.7-2.4-3.7c0.3,0.3,0.9,0.8,1.4,1c0.4,0.2,0.8,0.3,1.3,0.3c1.3,0.1,2.6-0.7,3.3-1.8c1.3-1.9,1.2-4.6,1.6-6.8
								c0.5-2.8,1-6,3.6-7.4c3-1.7,8.5-0.9,9.1,2.2C95.3,147.3,91,147.4,89,150z"/>
							<g id="XMLID_00000119839732964713902200000015053623680021718959_">
								<polygon id="XMLID_00000170962285552930317330000002902767820037601924_" class="st22" points="98.8,158.3 99.8,167.1 
									104.6,165.2 								"/>
							</g>
							<path class="st3" d="M95.8,161.1c0,0.8-0.6,1.4-1.4,1.4c-0.8,0-1.4-0.6-1.4-1.4s0.6-1.4,1.4-1.4
								C95.1,159.7,95.8,160.3,95.8,161.1z"/>
							<circle class="st3" cx="104.2" cy="159.7" r="1.4"/>
							<g>
								<path class="st4" d="M99,169.8c0,0.8-0.6,1.4-1.4,1.4s-1.4-0.6-1.4-1.4c0-0.8,0.6-1.4,1.4-1.4S99,169.1,99,169.8z"/>
								<path class="st10" d="M96.3,169.5c0,0.1,0,0.2,0,0.3c0,0.8,0.6,1.4,1.4,1.4c0.3,0,0.7-0.1,0.9-0.3
									C98,170.1,97.2,169.6,96.3,169.5z"/>
							</g>
							<g id="XMLID_00000145034618046863658140000002560083963756864173_">
								<path id="XMLID_00000010993301906442350400000017116912824110257837_" class="st22" d="M98.1,178.5
									c-3.9-0.1-7.5-0.8-9.7-2.2c-1-0.6-2.9-2.1-4.1-4.4c0,0,0.2,3.8,3.7,6.2c3.5,2.5,10.1,2.9,10.1,2.9L98.1,178.5z"/>
							</g>
						</g>
					</g>
				</g>
			</g>
			<g>
				<path class="st20" d="M151.3,236.8c2,0,2.1-0.2,2.4-1.2c0.3-1,0.6-3-0.7-4.7c-0.9-1.1-1.7-2.3-2.5-2.7c-0.7-0.4-1.6,1.1-0.9,2.8
					c1.2,2.8,0.5,3.3,0.5,3.3s-1.1-2.6-1.7-3.5c-0.6-0.9-2.2-2.2-3.1-3.1c-0.9-0.9-2.3-0.1-1.6,1.9c0,0-1.1-1.1-1.6-1.6
					c-1.2-1.1-2.2-1.1-2.2,0.5c0,0.4,0,0.9,0.4,1.5c0,0-1-1.4-1.5-1.1c-1.4,0.9-1.1,2,0.1,5.4c1,2.9,0.6,4.4-0.5,4.8l-0.7,0.2
					c0,0,1.4,0.6,2.8,1.1c1,0.3,2,0.5,2.8-0.6c0,0,1.1,1.5,2.1,1c1-0.6,1.8-1.8,1.8-1.8s1.1,0.6,2.2-0.3c1.1-0.9,1.3-1.8,1.3-1.8
					L151.3,236.8z"/>
				<path class="st22" d="M143.9,229.6c0.5,0.5,1,0.9,1.4,1.6c0.4,0.7,0.5,1.3,0.7,2c0.3,1.3,0.5,2.7,0.6,4.1
					c-0.5-1.3-0.9-2.6-1.2-3.9c-0.1-0.7-0.2-1.4-0.5-1.9C144.6,230.8,144.2,230.2,143.9,229.6z"/>
				<path class="st22" d="M140.4,229.9c0.6,0.5,1.1,1.1,1.4,1.8c0.3,0.7,0.5,1.4,0.7,2.1c0.3,1.4,0.6,2.9,0.6,4.4
					c-0.5-1.4-0.8-2.8-1.2-4.3C141.6,232.6,141.3,231.2,140.4,229.9z"/>
			</g>
		</g>
	</g>
</g>
</svg>
